<?xml version="1.0" encoding="utf-8" standalone="no"?>
<!DOCTYPE svg PUBLIC "-//W3C//DTD SVG 1.1//EN"
  "http://www.w3.org/Graphics/SVG/1.1/DTD/svg11.dtd">
<svg xmlns:xlink="http://www.w3.org/1999/xlink" width="460.8pt" height="345.6pt" viewBox="0 0 460.8 345.6" xmlns="http://www.w3.org/2000/svg" version="1.1">
 <metadata>
  <rdf:RDF xmlns:dc="http://purl.org/dc/elements/1.1/" xmlns:cc="http://creativecommons.org/ns#" xmlns:rdf="http://www.w3.org/1999/02/22-rdf-syntax-ns#">
   <cc:Work>
    <dc:type rdf:resource="http://purl.org/dc/dcmitype/StillImage"/>
    <dc:date>2022-12-23T10:26:22.416332</dc:date>
    <dc:format>image/svg+xml</dc:format>
    <dc:creator>
     <cc:Agent>
      <dc:title>Matplotlib v3.6.2, https://matplotlib.org/</dc:title>
     </cc:Agent>
    </dc:creator>
   </cc:Work>
  </rdf:RDF>
 </metadata>
 <defs>
  <style type="text/css">*{stroke-linejoin: round; stroke-linecap: butt}</style>
 </defs>
 <g id="figure_1">
  <g id="patch_1">
   <path d="M 0 345.6 
L 460.8 345.6 
L 460.8 0 
L 0 0 
z
" style="fill: #ffffff"/>
  </g>
  <g id="axes_1">
   <g id="patch_2">
    <path d="M 57.6 307.584 
L 414.72 307.584 
L 414.72 41.472 
L 57.6 41.472 
z
" style="fill: #ffffff"/>
   </g>
   <g id="matplotlib.axis_1">
    <g id="xtick_1">
     <g id="line2d_1">
      <path d="M 72.48 307.584 
L 72.48 41.472 
" clip-path="url(#pee055637a9)" style="fill: none; stroke: #b0b0b0; stroke-width: 0.8; stroke-linecap: square"/>
     </g>
     <g id="line2d_2">
      <defs>
       <path id="m710d33b93e" d="M 0 0 
L 0 3.5 
" style="stroke: #000000; stroke-width: 0.8"/>
      </defs>
      <g>
       <use xlink:href="#m710d33b93e" x="72.48" y="307.584" style="stroke: #000000; stroke-width: 0.8"/>
      </g>
     </g>
     <g id="text_1">
      <!-- 1月 -->
      <g transform="translate(64.330781 322.074625) scale(0.1 -0.1)">
       <defs>
        <path id="IPAexGothic-31" d="M 2463 63 
L 1900 63 
L 1900 4103 
Q 1372 3922 788 3797 
L 684 4231 
Q 1519 4441 2106 4731 
L 2463 4731 
L 2463 63 
z
" transform="scale(0.015625)"/>
        <path id="IPAexGothic-6708" d="M 5044 4984 
L 5044 256 
Q 5044 -78 4869 -203 
Q 4734 -300 4403 -300 
Q 3894 -300 3253 -247 
L 3169 244 
Q 3750 159 4294 159 
Q 4503 159 4547 263 
Q 4569 313 4569 438 
L 4569 1672 
L 1953 1672 
Q 1906 956 1716 475 
Q 1538 6 1116 -472 
L 744 -63 
Q 1259 475 1403 1244 
Q 1500 1772 1500 2650 
L 1500 4984 
L 5044 4984 
z
M 1981 4569 
L 1981 3541 
L 4569 3541 
L 4569 4569 
L 1981 4569 
z
M 1981 3144 
L 1981 2556 
Q 1981 2288 1975 2147 
L 1975 2069 
L 4569 2069 
L 4569 3144 
L 1981 3144 
z
" transform="scale(0.015625)"/>
       </defs>
       <use xlink:href="#IPAexGothic-31"/>
       <use xlink:href="#IPAexGothic-6708" x="62.988281"/>
      </g>
     </g>
    </g>
    <g id="xtick_2">
     <g id="line2d_3">
      <path d="M 102.24 307.584 
L 102.24 41.472 
" clip-path="url(#pee055637a9)" style="fill: none; stroke: #b0b0b0; stroke-width: 0.8; stroke-linecap: square"/>
     </g>
     <g id="line2d_4">
      <g>
       <use xlink:href="#m710d33b93e" x="102.24" y="307.584" style="stroke: #000000; stroke-width: 0.8"/>
      </g>
     </g>
     <g id="text_2">
      <!-- 2月 -->
      <g transform="translate(94.090781 322.074625) scale(0.1 -0.1)">
       <defs>
        <path id="IPAexGothic-32" d="M 3659 63 
L 447 63 
L 447 594 
Q 825 1475 1894 2203 
L 2072 2322 
Q 2619 2697 2791 2906 
Q 2988 3153 2988 3444 
Q 2988 3772 2756 4003 
Q 2500 4259 2084 4259 
Q 1250 4259 991 3328 
L 497 3506 
Q 853 4725 2116 4725 
Q 2806 4725 3216 4316 
Q 3575 3947 3575 3425 
Q 3575 3038 3344 2722 
Q 3131 2416 2366 1938 
L 2231 1856 
Q 1256 1253 978 569 
L 3659 569 
L 3659 63 
z
" transform="scale(0.015625)"/>
       </defs>
       <use xlink:href="#IPAexGothic-32"/>
       <use xlink:href="#IPAexGothic-6708" x="62.988281"/>
      </g>
     </g>
    </g>
    <g id="xtick_3">
     <g id="line2d_5">
      <path d="M 132 307.584 
L 132 41.472 
" clip-path="url(#pee055637a9)" style="fill: none; stroke: #b0b0b0; stroke-width: 0.8; stroke-linecap: square"/>
     </g>
     <g id="line2d_6">
      <g>
       <use xlink:href="#m710d33b93e" x="132" y="307.584" style="stroke: #000000; stroke-width: 0.8"/>
      </g>
     </g>
     <g id="text_3">
      <!-- 3月 -->
      <g transform="translate(123.850781 322.074625) scale(0.1 -0.1)">
       <defs>
        <path id="IPAexGothic-33" d="M 2381 2419 
Q 3506 2216 3506 1278 
Q 3506 716 3128 356 
Q 2709 -31 1944 -31 
Q 797 -31 288 881 
L 756 1131 
Q 1109 441 1938 441 
Q 2425 441 2694 691 
Q 2950 928 2950 1291 
Q 2950 1719 2566 1978 
Q 2216 2213 1644 2213 
L 1363 2213 
L 1363 2669 
L 1656 2669 
Q 2231 2669 2534 2888 
Q 2859 3119 2859 3509 
Q 2859 3934 2494 4138 
Q 2259 4278 1931 4278 
Q 1238 4278 903 3578 
L 434 3803 
Q 897 4725 1938 4725 
Q 2597 4725 3006 4394 
Q 3416 4069 3416 3534 
Q 3416 3028 3019 2706 
Q 2763 2500 2381 2444 
L 2381 2419 
z
" transform="scale(0.015625)"/>
       </defs>
       <use xlink:href="#IPAexGothic-33"/>
       <use xlink:href="#IPAexGothic-6708" x="62.988281"/>
      </g>
     </g>
    </g>
    <g id="xtick_4">
     <g id="line2d_7">
      <path d="M 161.76 307.584 
L 161.76 41.472 
" clip-path="url(#pee055637a9)" style="fill: none; stroke: #b0b0b0; stroke-width: 0.8; stroke-linecap: square"/>
     </g>
     <g id="line2d_8">
      <g>
       <use xlink:href="#m710d33b93e" x="161.76" y="307.584" style="stroke: #000000; stroke-width: 0.8"/>
      </g>
     </g>
     <g id="text_4">
      <!-- 4月 -->
      <g transform="translate(153.610781 322.074625) scale(0.1 -0.1)">
       <defs>
        <path id="IPAexGothic-34" d="M 3813 1159 
L 3059 1159 
L 3059 63 
L 2547 63 
L 2547 1159 
L 197 1159 
L 197 1672 
L 2456 4678 
L 3059 4678 
L 3059 1634 
L 3813 1634 
L 3813 1159 
z
M 2578 4109 
L 2559 4109 
Q 2278 3656 2003 3284 
L 759 1634 
L 2547 1634 
L 2547 3144 
Q 2547 3481 2578 4109 
z
" transform="scale(0.015625)"/>
       </defs>
       <use xlink:href="#IPAexGothic-34"/>
       <use xlink:href="#IPAexGothic-6708" x="62.988281"/>
      </g>
     </g>
    </g>
    <g id="xtick_5">
     <g id="line2d_9">
      <path d="M 191.52 307.584 
L 191.52 41.472 
" clip-path="url(#pee055637a9)" style="fill: none; stroke: #b0b0b0; stroke-width: 0.8; stroke-linecap: square"/>
     </g>
     <g id="line2d_10">
      <g>
       <use xlink:href="#m710d33b93e" x="191.52" y="307.584" style="stroke: #000000; stroke-width: 0.8"/>
      </g>
     </g>
     <g id="text_5">
      <!-- 5月 -->
      <g transform="translate(183.370781 322.074625) scale(0.1 -0.1)">
       <defs>
        <path id="IPAexGothic-35" d="M 1178 2603 
Q 1634 2963 2172 2963 
Q 2816 2963 3241 2528 
Q 3638 2113 3638 1497 
Q 3638 938 3297 513 
Q 2869 -31 2031 -31 
Q 959 -31 469 784 
L 938 1028 
Q 1309 434 2013 434 
Q 2466 434 2769 716 
Q 3081 1013 3081 1503 
Q 3081 1966 2806 2241 
Q 2519 2528 2056 2528 
Q 1406 2528 1072 2028 
L 591 2091 
L 884 4634 
L 3406 4634 
L 3406 4153 
L 1341 4153 
L 1134 2603 
L 1178 2603 
z
" transform="scale(0.015625)"/>
       </defs>
       <use xlink:href="#IPAexGothic-35"/>
       <use xlink:href="#IPAexGothic-6708" x="62.988281"/>
      </g>
     </g>
    </g>
    <g id="xtick_6">
     <g id="line2d_11">
      <path d="M 221.28 307.584 
L 221.28 41.472 
" clip-path="url(#pee055637a9)" style="fill: none; stroke: #b0b0b0; stroke-width: 0.8; stroke-linecap: square"/>
     </g>
     <g id="line2d_12">
      <g>
       <use xlink:href="#m710d33b93e" x="221.28" y="307.584" style="stroke: #000000; stroke-width: 0.8"/>
      </g>
     </g>
     <g id="text_6">
      <!-- 6月 -->
      <g transform="translate(213.130781 322.074625) scale(0.1 -0.1)">
       <defs>
        <path id="IPAexGothic-36" d="M 1056 2328 
Q 1509 2981 2234 2981 
Q 2906 2981 3316 2513 
Q 3675 2106 3675 1522 
Q 3675 884 3272 434 
Q 2853 -31 2178 -31 
Q 1375 -31 922 581 
Q 481 1178 481 2228 
Q 481 3425 1013 4109 
Q 1494 4725 2272 4725 
Q 3191 4725 3609 4025 
L 3150 3775 
Q 2894 4266 2300 4266 
Q 1119 4266 1031 2328 
L 1056 2328 
z
M 2141 2547 
Q 1684 2547 1384 2206 
Q 1116 1900 1116 1541 
Q 1116 1156 1353 844 
Q 1672 428 2159 428 
Q 2669 428 2941 844 
Q 3125 1128 3125 1503 
Q 3125 1944 2881 2228 
Q 2600 2547 2141 2547 
z
" transform="scale(0.015625)"/>
       </defs>
       <use xlink:href="#IPAexGothic-36"/>
       <use xlink:href="#IPAexGothic-6708" x="62.988281"/>
      </g>
     </g>
    </g>
    <g id="xtick_7">
     <g id="line2d_13">
      <path d="M 251.04 307.584 
L 251.04 41.472 
" clip-path="url(#pee055637a9)" style="fill: none; stroke: #b0b0b0; stroke-width: 0.8; stroke-linecap: square"/>
     </g>
     <g id="line2d_14">
      <g>
       <use xlink:href="#m710d33b93e" x="251.04" y="307.584" style="stroke: #000000; stroke-width: 0.8"/>
      </g>
     </g>
     <g id="text_7">
      <!-- 7月 -->
      <g transform="translate(242.890781 322.074625) scale(0.1 -0.1)">
       <defs>
        <path id="IPAexGothic-37" d="M 3597 4263 
Q 2238 2106 1778 63 
L 1131 63 
Q 1581 1834 2950 4128 
L 428 4128 
L 428 4634 
L 3597 4634 
L 3597 4263 
z
" transform="scale(0.015625)"/>
       </defs>
       <use xlink:href="#IPAexGothic-37"/>
       <use xlink:href="#IPAexGothic-6708" x="62.988281"/>
      </g>
     </g>
    </g>
    <g id="xtick_8">
     <g id="line2d_15">
      <path d="M 280.8 307.584 
L 280.8 41.472 
" clip-path="url(#pee055637a9)" style="fill: none; stroke: #b0b0b0; stroke-width: 0.8; stroke-linecap: square"/>
     </g>
     <g id="line2d_16">
      <g>
       <use xlink:href="#m710d33b93e" x="280.8" y="307.584" style="stroke: #000000; stroke-width: 0.8"/>
      </g>
     </g>
     <g id="text_8">
      <!-- 8月 -->
      <g transform="translate(272.650781 322.074625) scale(0.1 -0.1)">
       <defs>
        <path id="IPAexGothic-38" d="M 2541 2425 
Q 3700 2031 3700 1197 
Q 3700 541 3100 197 
Q 2663 -56 2016 -56 
Q 1366 -56 928 197 
Q 347 531 347 1178 
Q 347 1988 1409 2381 
L 1409 2400 
Q 481 2734 481 3509 
Q 481 4100 981 4456 
Q 1406 4756 2019 4756 
Q 2703 4756 3131 4403 
Q 3553 4069 3553 3566 
Q 3553 2706 2541 2444 
L 2541 2425 
z
M 2022 2625 
Q 2997 2856 2997 3528 
Q 2997 3916 2675 4150 
Q 2413 4347 2016 4347 
Q 1606 4347 1331 4128 
Q 1050 3897 1050 3522 
Q 1050 3150 1350 2925 
Q 1494 2809 1722 2722 
Q 1984 2616 2022 2625 
z
M 1978 2209 
Q 922 1931 922 1216 
Q 922 775 1313 556 
Q 1606 391 2009 391 
Q 2575 391 2881 697 
Q 3106 922 3106 1250 
Q 3106 1594 2794 1850 
Q 2609 1994 2350 2100 
Q 2047 2222 1978 2209 
z
" transform="scale(0.015625)"/>
       </defs>
       <use xlink:href="#IPAexGothic-38"/>
       <use xlink:href="#IPAexGothic-6708" x="62.988281"/>
      </g>
     </g>
    </g>
    <g id="xtick_9">
     <g id="line2d_17">
      <path d="M 310.56 307.584 
L 310.56 41.472 
" clip-path="url(#pee055637a9)" style="fill: none; stroke: #b0b0b0; stroke-width: 0.8; stroke-linecap: square"/>
     </g>
     <g id="line2d_18">
      <g>
       <use xlink:href="#m710d33b93e" x="310.56" y="307.584" style="stroke: #000000; stroke-width: 0.8"/>
      </g>
     </g>
     <g id="text_9">
      <!-- 9月 -->
      <g transform="translate(302.410781 322.074625) scale(0.1 -0.1)">
       <defs>
        <path id="IPAexGothic-39" d="M 2984 2356 
Q 2544 1716 1813 1716 
Q 1253 1716 847 2056 
Q 366 2459 366 3163 
Q 366 3813 769 4266 
Q 1181 4725 1869 4725 
Q 2800 4725 3241 3950 
Q 3559 3378 3559 2472 
Q 3559 1250 3041 588 
Q 2553 -31 1769 -31 
Q 859 -31 391 703 
L 853 953 
Q 1156 428 1753 428 
Q 2922 428 3009 2356 
L 2984 2356 
z
M 1888 4278 
Q 1450 4278 1172 3950 
Q 922 3653 922 3200 
Q 922 2741 1159 2478 
Q 1434 2163 1906 2163 
Q 2431 2163 2728 2572 
Q 2925 2847 2925 3169 
Q 2925 3553 2694 3863 
Q 2375 4278 1888 4278 
z
" transform="scale(0.015625)"/>
       </defs>
       <use xlink:href="#IPAexGothic-39"/>
       <use xlink:href="#IPAexGothic-6708" x="62.988281"/>
      </g>
     </g>
    </g>
    <g id="xtick_10">
     <g id="line2d_19">
      <path d="M 340.32 307.584 
L 340.32 41.472 
" clip-path="url(#pee055637a9)" style="fill: none; stroke: #b0b0b0; stroke-width: 0.8; stroke-linecap: square"/>
     </g>
     <g id="line2d_20">
      <g>
       <use xlink:href="#m710d33b93e" x="340.32" y="307.584" style="stroke: #000000; stroke-width: 0.8"/>
      </g>
     </g>
     <g id="text_10">
      <!-- 10月 -->
      <g transform="translate(329.021563 322.074625) scale(0.1 -0.1)">
       <defs>
        <path id="IPAexGothic-30" d="M 2038 4725 
Q 2881 4725 3334 3944 
Q 3694 3325 3694 2344 
Q 3694 1372 3334 741 
Q 2888 -31 2016 -31 
Q 1147 -31 700 741 
Q 341 1372 341 2350 
Q 341 3713 1000 4334 
Q 1419 4725 2038 4725 
z
M 2016 4266 
Q 1516 4266 1228 3759 
Q 934 3247 934 2344 
Q 934 1456 1222 947 
Q 1513 447 2016 447 
Q 2619 447 2909 1153 
Q 3100 1622 3100 2375 
Q 3100 3256 2806 3759 
Q 2509 4266 2016 4266 
z
" transform="scale(0.015625)"/>
       </defs>
       <use xlink:href="#IPAexGothic-31"/>
       <use xlink:href="#IPAexGothic-30" x="62.988281"/>
       <use xlink:href="#IPAexGothic-6708" x="125.976562"/>
      </g>
     </g>
    </g>
    <g id="xtick_11">
     <g id="line2d_21">
      <path d="M 370.08 307.584 
L 370.08 41.472 
" clip-path="url(#pee055637a9)" style="fill: none; stroke: #b0b0b0; stroke-width: 0.8; stroke-linecap: square"/>
     </g>
     <g id="line2d_22">
      <g>
       <use xlink:href="#m710d33b93e" x="370.08" y="307.584" style="stroke: #000000; stroke-width: 0.8"/>
      </g>
     </g>
     <g id="text_11">
      <!-- 11月 -->
      <g transform="translate(358.781563 322.074625) scale(0.1 -0.1)">
       <use xlink:href="#IPAexGothic-31"/>
       <use xlink:href="#IPAexGothic-31" x="62.988281"/>
       <use xlink:href="#IPAexGothic-6708" x="125.976562"/>
      </g>
     </g>
    </g>
    <g id="xtick_12">
     <g id="line2d_23">
      <path d="M 399.84 307.584 
L 399.84 41.472 
" clip-path="url(#pee055637a9)" style="fill: none; stroke: #b0b0b0; stroke-width: 0.8; stroke-linecap: square"/>
     </g>
     <g id="line2d_24">
      <g>
       <use xlink:href="#m710d33b93e" x="399.84" y="307.584" style="stroke: #000000; stroke-width: 0.8"/>
      </g>
     </g>
     <g id="text_12">
      <!-- 12月 -->
      <g transform="translate(388.541562 322.074625) scale(0.1 -0.1)">
       <use xlink:href="#IPAexGothic-31"/>
       <use xlink:href="#IPAexGothic-32" x="62.988281"/>
       <use xlink:href="#IPAexGothic-6708" x="125.976562"/>
      </g>
     </g>
    </g>
    <g id="text_13">
     <!-- 月 -->
     <g transform="translate(231.16 335.46525) scale(0.1 -0.1)">
      <use xlink:href="#IPAexGothic-6708"/>
     </g>
    </g>
   </g>
   <g id="matplotlib.axis_2">
    <g id="ytick_1">
     <g id="line2d_25">
      <path d="M 57.6 307.584 
L 414.72 307.584 
" clip-path="url(#pee055637a9)" style="fill: none; stroke: #b0b0b0; stroke-width: 0.8; stroke-linecap: square"/>
     </g>
     <g id="line2d_26">
      <defs>
       <path id="mc49b265559" d="M 0 0 
L -3.5 0 
" style="stroke: #000000; stroke-width: 0.8"/>
      </defs>
      <g>
       <use xlink:href="#mc49b265559" x="57.6" y="307.584" style="stroke: #000000; stroke-width: 0.8"/>
      </g>
     </g>
     <g id="text_14">
      <!-- 0 -->
      <g transform="translate(44.301563 311.329312) scale(0.1 -0.1)">
       <use xlink:href="#IPAexGothic-30"/>
      </g>
     </g>
    </g>
    <g id="ytick_2">
     <g id="line2d_27">
      <path d="M 57.6 269.568 
L 414.72 269.568 
" clip-path="url(#pee055637a9)" style="fill: none; stroke: #b0b0b0; stroke-width: 0.8; stroke-linecap: square"/>
     </g>
     <g id="line2d_28">
      <g>
       <use xlink:href="#mc49b265559" x="57.6" y="269.568" style="stroke: #000000; stroke-width: 0.8"/>
      </g>
     </g>
     <g id="text_15">
      <!-- 5 -->
      <g transform="translate(44.301563 273.313312) scale(0.1 -0.1)">
       <use xlink:href="#IPAexGothic-35"/>
      </g>
     </g>
    </g>
    <g id="ytick_3">
     <g id="line2d_29">
      <path d="M 57.6 231.552 
L 414.72 231.552 
" clip-path="url(#pee055637a9)" style="fill: none; stroke: #b0b0b0; stroke-width: 0.8; stroke-linecap: square"/>
     </g>
     <g id="line2d_30">
      <g>
       <use xlink:href="#mc49b265559" x="57.6" y="231.552" style="stroke: #000000; stroke-width: 0.8"/>
      </g>
     </g>
     <g id="text_16">
      <!-- 10 -->
      <g transform="translate(38.003125 235.297312) scale(0.1 -0.1)">
       <use xlink:href="#IPAexGothic-31"/>
       <use xlink:href="#IPAexGothic-30" x="62.988281"/>
      </g>
     </g>
    </g>
    <g id="ytick_4">
     <g id="line2d_31">
      <path d="M 57.6 193.536 
L 414.72 193.536 
" clip-path="url(#pee055637a9)" style="fill: none; stroke: #b0b0b0; stroke-width: 0.8; stroke-linecap: square"/>
     </g>
     <g id="line2d_32">
      <g>
       <use xlink:href="#mc49b265559" x="57.6" y="193.536" style="stroke: #000000; stroke-width: 0.8"/>
      </g>
     </g>
     <g id="text_17">
      <!-- 15 -->
      <g transform="translate(38.003125 197.281313) scale(0.1 -0.1)">
       <use xlink:href="#IPAexGothic-31"/>
       <use xlink:href="#IPAexGothic-35" x="62.988281"/>
      </g>
     </g>
    </g>
    <g id="ytick_5">
     <g id="line2d_33">
      <path d="M 57.6 155.52 
L 414.72 155.52 
" clip-path="url(#pee055637a9)" style="fill: none; stroke: #b0b0b0; stroke-width: 0.8; stroke-linecap: square"/>
     </g>
     <g id="line2d_34">
      <g>
       <use xlink:href="#mc49b265559" x="57.6" y="155.52" style="stroke: #000000; stroke-width: 0.8"/>
      </g>
     </g>
     <g id="text_18">
      <!-- 20 -->
      <g transform="translate(38.003125 159.265313) scale(0.1 -0.1)">
       <use xlink:href="#IPAexGothic-32"/>
       <use xlink:href="#IPAexGothic-30" x="62.988281"/>
      </g>
     </g>
    </g>
    <g id="ytick_6">
     <g id="line2d_35">
      <path d="M 57.6 117.504 
L 414.72 117.504 
" clip-path="url(#pee055637a9)" style="fill: none; stroke: #b0b0b0; stroke-width: 0.8; stroke-linecap: square"/>
     </g>
     <g id="line2d_36">
      <g>
       <use xlink:href="#mc49b265559" x="57.6" y="117.504" style="stroke: #000000; stroke-width: 0.8"/>
      </g>
     </g>
     <g id="text_19">
      <!-- 25 -->
      <g transform="translate(38.003125 121.249313) scale(0.1 -0.1)">
       <use xlink:href="#IPAexGothic-32"/>
       <use xlink:href="#IPAexGothic-35" x="62.988281"/>
      </g>
     </g>
    </g>
    <g id="ytick_7">
     <g id="line2d_37">
      <path d="M 57.6 79.488 
L 414.72 79.488 
" clip-path="url(#pee055637a9)" style="fill: none; stroke: #b0b0b0; stroke-width: 0.8; stroke-linecap: square"/>
     </g>
     <g id="line2d_38">
      <g>
       <use xlink:href="#mc49b265559" x="57.6" y="79.488" style="stroke: #000000; stroke-width: 0.8"/>
      </g>
     </g>
     <g id="text_20">
      <!-- 30 -->
      <g transform="translate(38.003125 83.233313) scale(0.1 -0.1)">
       <use xlink:href="#IPAexGothic-33"/>
       <use xlink:href="#IPAexGothic-30" x="62.988281"/>
      </g>
     </g>
    </g>
    <g id="ytick_8">
     <g id="line2d_39">
      <path d="M 57.6 41.472 
L 414.72 41.472 
" clip-path="url(#pee055637a9)" style="fill: none; stroke: #b0b0b0; stroke-width: 0.8; stroke-linecap: square"/>
     </g>
     <g id="line2d_40">
      <g>
       <use xlink:href="#mc49b265559" x="57.6" y="41.472" style="stroke: #000000; stroke-width: 0.8"/>
      </g>
     </g>
     <g id="text_21">
      <!-- 35 -->
      <g transform="translate(38.003125 45.217313) scale(0.1 -0.1)">
       <use xlink:href="#IPAexGothic-33"/>
       <use xlink:href="#IPAexGothic-35" x="62.988281"/>
      </g>
     </g>
    </g>
    <g id="text_22">
     <!-- 気温[°C] -->
     <g transform="translate(32.103125 192.851438) rotate(-90) scale(0.1 -0.1)">
      <defs>
       <path id="IPAexGothic-6c17" d="M 1863 4659 
L 5594 4659 
L 5594 4263 
L 1672 4263 
Q 1306 3572 831 3059 
L 531 3397 
Q 1266 4181 1600 5288 
L 2069 5203 
Q 1981 4941 1863 4659 
z
M 5000 2950 
L 5006 2400 
Q 5025 1044 5222 466 
Q 5328 184 5394 184 
Q 5513 184 5638 1191 
L 6047 916 
Q 5847 -450 5422 -450 
Q 5128 -450 4856 147 
Q 4550 819 4550 2381 
L 4550 2553 
L 672 2553 
L 672 2950 
L 5000 2950 
z
M 2388 1106 
Q 1741 1553 1069 1875 
L 1350 2188 
Q 1991 1878 2606 1478 
L 2669 1441 
Q 3034 1894 3250 2431 
L 3681 2241 
Q 3403 1634 3047 1184 
Q 3672 744 4269 231 
L 3944 -128 
Q 3384 391 2759 844 
Q 2031 50 928 -372 
L 653 31 
Q 1728 403 2356 1069 
L 2388 1106 
z
M 1516 3822 
L 4991 3822 
L 4991 3425 
L 1516 3425 
L 1516 3822 
z
" transform="scale(0.015625)"/>
       <path id="IPAexGothic-6e29" d="M 5344 4984 
L 5344 2669 
L 2381 2669 
L 2381 4984 
L 5344 4984 
z
M 2822 4613 
L 2822 4025 
L 4909 4025 
L 4909 4613 
L 2822 4613 
z
M 2822 3659 
L 2822 3041 
L 4909 3041 
L 4909 3659 
L 2822 3659 
z
M 5628 2131 
L 5628 178 
L 6094 178 
L 6094 -225 
L 1631 -225 
L 1631 178 
L 2138 178 
L 2138 2131 
L 5628 2131 
z
M 2553 1747 
L 2553 178 
L 3169 178 
L 3169 1747 
L 2553 1747 
z
M 5213 178 
L 5213 1747 
L 4572 1747 
L 4572 178 
L 5213 178 
z
M 3566 1747 
L 3566 178 
L 4175 178 
L 4175 1747 
L 3566 1747 
z
M 1613 3859 
Q 1247 4297 706 4716 
L 1013 5063 
Q 1494 4731 1934 4244 
L 1613 3859 
z
M 1422 2388 
Q 975 2903 475 3250 
L 781 3609 
Q 1338 3225 1747 2759 
L 1422 2388 
z
M 353 19 
Q 969 806 1466 1919 
L 1800 1563 
Q 1303 422 731 -372 
L 353 19 
z
" transform="scale(0.015625)"/>
       <path id="IPAexGothic-5b" d="M 1706 -991 
L 581 -991 
L 581 4750 
L 1706 4750 
L 1706 4438 
L 1028 4438 
L 1028 -678 
L 1706 -678 
L 1706 -991 
z
" transform="scale(0.015625)"/>
       <path id="IPAexGothic-b0" d="M 1056 5300 
Q 1363 5300 1581 5063 
Q 1766 4856 1766 4584 
Q 1766 4372 1650 4197 
Q 1441 3866 1050 3866 
Q 878 3866 709 3956 
Q 331 4159 331 4591 
Q 331 4944 631 5166 
Q 816 5300 1056 5300 
z
M 1050 5019 
Q 916 5019 784 4928 
Q 613 4803 613 4584 
Q 613 4472 669 4366 
Q 794 4147 1056 4147 
Q 1200 4147 1313 4231 
Q 1484 4366 1484 4584 
Q 1484 4791 1331 4916 
Q 1209 5019 1050 5019 
z
" transform="scale(0.015625)"/>
       <path id="IPAexGothic-43" d="M 4353 1088 
Q 4181 694 3859 428 
Q 3313 -31 2559 -31 
Q 1588 -31 959 653 
Q 378 1294 378 2331 
Q 378 3406 1013 4078 
Q 1619 4725 2534 4725 
Q 3813 4725 4322 3628 
L 3809 3391 
Q 3425 4238 2541 4238 
Q 1891 4238 1453 3744 
Q 994 3216 994 2322 
Q 994 1550 1384 1056 
Q 1841 472 2563 472 
Q 3456 472 3878 1319 
L 4353 1088 
z
" transform="scale(0.015625)"/>
       <path id="IPAexGothic-5d" d="M 1322 -991 
L 197 -991 
L 197 -678 
L 875 -678 
L 875 4438 
L 197 4438 
L 197 4750 
L 1322 4750 
L 1322 -991 
z
" transform="scale(0.015625)"/>
      </defs>
      <use xlink:href="#IPAexGothic-6c17"/>
      <use xlink:href="#IPAexGothic-6e29" x="100"/>
      <use xlink:href="#IPAexGothic-5b" x="200"/>
      <use xlink:href="#IPAexGothic-b0" x="229.980469"/>
      <use xlink:href="#IPAexGothic-43" x="263.964844"/>
      <use xlink:href="#IPAexGothic-5d" x="336.474609"/>
     </g>
    </g>
   </g>
   <g id="line2d_41">
    <path d="M 72.48 170.7264 
L 102.24 175.28832 
L 132 148.67712 
L 161.76 142.59456 
L 191.52 127.38816 
L 221.28 98.496 
L 251.04 92.41344 
L 280.8 91.65312 
L 310.56 93.17376 
L 340.32 107.61984 
L 370.08 135.75168 
L 399.84 167.68512 
" clip-path="url(#pee055637a9)" style="fill: none; stroke: #1f77b4; stroke-width: 1.5; stroke-linecap: square"/>
   </g>
   <g id="line2d_42">
    <path d="M 72.48 180.61056 
L 102.24 156.28032 
L 132 158.56128 
L 161.76 151.7184 
L 191.52 127.38816 
L 221.28 106.85952 
L 251.04 85.57056 
L 280.8 83.2896 
L 310.56 87.0912 
L 340.32 115.22304 
L 370.08 134.99136 
L 399.84 168.44544 
" clip-path="url(#pee055637a9)" style="fill: none; stroke: #ff7f0e; stroke-width: 1.5; stroke-linecap: square"/>
   </g>
   <g id="line2d_43">
    <path d="M 72.48 169.96608 
L 102.24 155.52 
L 132 156.28032 
L 161.76 138.03264 
L 191.52 123.58656 
L 221.28 106.0992 
L 251.04 87.85152 
L 280.8 85.57056 
L 310.56 94.6944 
L 340.32 109.9008 
L 370.08 131.95008 
L 399.84 155.52 
" clip-path="url(#pee055637a9)" style="fill: none; stroke: #2ca02c; stroke-width: 1.5; stroke-linecap: square"/>
   </g>
   <g id="patch_3">
    <path d="M 57.6 307.584 
L 57.6 41.472 
" style="fill: none; stroke: #000000; stroke-width: 0.8; stroke-linejoin: miter; stroke-linecap: square"/>
   </g>
   <g id="patch_4">
    <path d="M 414.72 307.584 
L 414.72 41.472 
" style="fill: none; stroke: #000000; stroke-width: 0.8; stroke-linejoin: miter; stroke-linecap: square"/>
   </g>
   <g id="patch_5">
    <path d="M 57.6 307.584 
L 414.72 307.584 
" style="fill: none; stroke: #000000; stroke-width: 0.8; stroke-linejoin: miter; stroke-linecap: square"/>
   </g>
   <g id="patch_6">
    <path d="M 57.6 41.472 
L 414.72 41.472 
" style="fill: none; stroke: #000000; stroke-width: 0.8; stroke-linejoin: miter; stroke-linecap: square"/>
   </g>
   <g id="text_23">
    <!-- 沖縄の月別平均気温 -->
    <g transform="translate(182.16 35.472) scale(0.12 -0.12)">
     <defs>
      <path id="IPAexGothic-6c96" d="M 3769 3950 
L 3769 5209 
L 4238 5209 
L 4238 3950 
L 5906 3950 
L 5906 1131 
L 5453 1131 
L 5453 1606 
L 4238 1606 
L 4238 -447 
L 3769 -447 
L 3769 1606 
L 2591 1606 
L 2591 1106 
L 2138 1106 
L 2138 3950 
L 3769 3950 
z
M 2591 3547 
L 2591 2016 
L 3769 2016 
L 3769 3547 
L 2591 3547 
z
M 5453 2016 
L 5453 3547 
L 4238 3547 
L 4238 2016 
L 5453 2016 
z
M 391 19 
Q 1016 844 1466 1941 
L 1825 1644 
Q 1359 494 750 -384 
L 391 19 
z
M 1350 2375 
Q 916 2897 416 3244 
L 722 3603 
Q 1250 3244 1691 2766 
L 1350 2375 
z
M 1497 3859 
Q 1016 4400 581 4722 
L 903 5069 
Q 1391 4728 1831 4250 
L 1497 3859 
z
" transform="scale(0.015625)"/>
      <path id="IPAexGothic-7e04" d="M 1194 3091 
Q 719 3763 325 4128 
L 581 4441 
Q 716 4306 856 4153 
Q 1250 4747 1497 5325 
L 1913 5125 
Q 1450 4325 1106 3866 
Q 1197 3756 1425 3444 
Q 1784 4009 2072 4538 
L 2450 4319 
Q 1906 3369 1278 2584 
L 1444 2591 
Q 1572 2603 1809 2619 
Q 1988 2631 2066 2638 
Q 1925 2969 1841 3128 
L 2163 3263 
Q 2453 2806 2678 2100 
L 2297 1913 
Q 2263 2047 2175 2316 
Q 2131 2313 1963 2288 
Q 1800 2263 1681 2247 
L 1681 -447 
L 1272 -447 
L 1272 2194 
Q 1209 2194 1163 2188 
Q 738 2144 416 2119 
L 281 2547 
Q 325 2547 628 2553 
Q 763 2556 819 2559 
Q 844 2597 863 2619 
Q 1056 2884 1194 3091 
z
M 4544 3075 
L 4544 2700 
L 5984 2700 
L 5984 763 
L 4544 763 
L 4544 275 
Q 4544 88 4653 56 
Q 4747 25 5094 25 
Q 5638 25 5694 147 
Q 5756 278 5766 634 
L 6191 519 
Q 6150 -128 5947 -256 
Q 5728 -384 5094 -384 
Q 4447 -384 4288 -281 
Q 4147 -197 4147 97 
L 4147 763 
L 3169 763 
L 3169 288 
L 2759 288 
L 2759 2700 
L 4147 2700 
L 4147 3075 
L 2938 3075 
L 2938 4984 
L 5791 4984 
L 5791 3075 
L 4544 3075 
z
M 4147 4644 
L 3347 4644 
L 3347 4197 
L 4147 4197 
L 4147 4644 
z
M 4544 4644 
L 4544 4197 
L 5381 4197 
L 5381 4644 
L 4544 4644 
z
M 4147 3872 
L 3347 3872 
L 3347 3406 
L 4147 3406 
L 4147 3872 
z
M 4544 3872 
L 4544 3406 
L 5381 3406 
L 5381 3872 
L 4544 3872 
z
M 4147 2369 
L 3169 2369 
L 3169 1906 
L 4147 1906 
L 4147 2369 
z
M 4544 2369 
L 4544 1906 
L 5572 1906 
L 5572 2369 
L 4544 2369 
z
M 4147 1581 
L 3169 1581 
L 3169 1094 
L 4147 1094 
L 4147 1581 
z
M 4544 1581 
L 4544 1094 
L 5572 1094 
L 5572 1581 
L 4544 1581 
z
M 331 191 
Q 541 850 606 1778 
L 997 1734 
Q 931 738 728 -13 
L 331 191 
z
M 2125 319 
Q 2034 1078 1850 1741 
L 2194 1838 
Q 2413 1244 2534 488 
L 2125 319 
z
" transform="scale(0.015625)"/>
      <path id="IPAexGothic-306e" d="M 3119 469 
Q 5275 766 5275 2425 
Q 5275 3453 4413 3925 
Q 4041 4116 3547 4159 
Q 3394 2525 2850 1400 
Q 2322 306 1722 306 
Q 1384 306 1084 666 
Q 609 1244 609 2003 
Q 609 3025 1397 3794 
Q 2184 4563 3431 4563 
Q 4306 4563 4928 4122 
Q 5813 3506 5813 2425 
Q 5813 438 3431 6 
L 3119 469 
z
M 3053 4147 
Q 2378 4044 1891 3641 
Q 1097 2981 1097 1991 
Q 1097 1366 1434 978 
Q 1581 813 1719 813 
Q 2022 813 2416 1625 
Q 2909 2638 3053 4147 
z
" transform="scale(0.015625)"/>
      <path id="IPAexGothic-5225" d="M 1922 2963 
Q 1906 2453 1894 2209 
L 3341 2209 
Q 3313 550 3175 63 
Q 3059 -366 2413 -366 
Q 2072 -366 1753 -313 
L 1691 134 
Q 2084 63 2413 63 
Q 2694 63 2759 319 
Q 2856 722 2888 1753 
Q 2888 1800 2894 1819 
L 1863 1819 
Q 1709 350 700 -481 
L 353 -147 
Q 1075 403 1306 1256 
Q 1450 1822 1478 2963 
L 700 2963 
L 700 4984 
L 3278 4984 
L 3278 2963 
L 1922 2963 
z
M 1141 4588 
L 1141 3353 
L 2838 3353 
L 2838 4588 
L 1141 4588 
z
M 3972 4597 
L 4425 4597 
L 4425 1159 
L 3972 1159 
L 3972 4597 
z
M 5309 5044 
L 5763 5044 
L 5763 191 
Q 5763 -141 5581 -263 
Q 5438 -359 5116 -359 
Q 4688 -359 4253 -313 
L 4156 178 
Q 4625 116 5072 116 
Q 5309 116 5309 353 
L 5309 5044 
z
" transform="scale(0.015625)"/>
      <path id="IPAexGothic-5e73" d="M 3422 4428 
L 3422 1941 
L 6084 1941 
L 6084 1513 
L 3422 1513 
L 3422 -447 
L 2934 -447 
L 2934 1513 
L 322 1513 
L 322 1941 
L 2934 1941 
L 2934 4428 
L 641 4428 
L 641 4856 
L 5763 4856 
L 5763 4428 
L 3422 4428 
z
M 1728 2278 
Q 1488 3094 1081 3859 
L 1544 4038 
Q 1875 3422 2222 2472 
L 1728 2278 
z
M 4134 2425 
Q 4509 3138 4813 4128 
L 5306 3944 
Q 4984 3006 4569 2228 
L 4134 2425 
z
" transform="scale(0.015625)"/>
      <path id="IPAexGothic-5747" d="M 1206 3794 
L 1206 5144 
L 1659 5144 
L 1659 3794 
L 2369 3794 
L 2369 3372 
L 1659 3372 
L 1659 1325 
Q 2078 1513 2484 1722 
L 2566 1313 
Q 1556 775 559 397 
L 334 838 
Q 803 975 1206 1138 
L 1206 3372 
L 413 3372 
L 413 3794 
L 1206 3794 
z
M 3475 4244 
L 5844 4244 
Q 5834 1131 5619 184 
Q 5494 -366 4838 -366 
Q 4369 -366 3859 -306 
L 3769 184 
Q 4241 88 4731 88 
Q 5059 88 5147 306 
Q 5359 919 5369 3828 
L 3316 3828 
Q 3013 3119 2466 2472 
L 2150 2828 
Q 2944 3788 3259 5263 
L 3719 5147 
Q 3619 4663 3475 4244 
z
M 2975 2847 
L 4678 2847 
L 4678 2431 
L 2975 2431 
L 2975 2847 
z
M 2559 1044 
Q 3747 1338 4838 1797 
L 4891 1388 
Q 3831 891 2766 588 
L 2559 1044 
z
" transform="scale(0.015625)"/>
     </defs>
     <use xlink:href="#IPAexGothic-6c96"/>
     <use xlink:href="#IPAexGothic-7e04" x="100"/>
     <use xlink:href="#IPAexGothic-306e" x="200"/>
     <use xlink:href="#IPAexGothic-6708" x="300"/>
     <use xlink:href="#IPAexGothic-5225" x="400"/>
     <use xlink:href="#IPAexGothic-5e73" x="500"/>
     <use xlink:href="#IPAexGothic-5747" x="600"/>
     <use xlink:href="#IPAexGothic-6c17" x="700"/>
     <use xlink:href="#IPAexGothic-6e29" x="800"/>
    </g>
   </g>
   <g id="legend_1">
    <g id="patch_7">
     <path d="M 340.52625 92.643875 
L 407.72 92.643875 
Q 409.72 92.643875 409.72 90.643875 
L 409.72 48.472 
Q 409.72 46.472 407.72 46.472 
L 340.52625 46.472 
Q 338.52625 46.472 338.52625 48.472 
L 338.52625 90.643875 
Q 338.52625 92.643875 340.52625 92.643875 
z
" style="fill: #ffffff; opacity: 0.8; stroke: #cccccc; stroke-linejoin: miter"/>
    </g>
    <g id="line2d_44">
     <path d="M 342.52625 54.462625 
L 352.52625 54.462625 
L 362.52625 54.462625 
" style="fill: none; stroke: #1f77b4; stroke-width: 1.5; stroke-linecap: square"/>
    </g>
    <g id="text_24">
     <!-- 1999年 -->
     <g transform="translate(370.52625 57.962625) scale(0.1 -0.1)">
      <defs>
       <path id="IPAexGothic-5e74" d="M 1772 4159 
Q 1444 3422 875 2803 
L 528 3166 
Q 1322 3941 1631 5259 
L 2109 5156 
Q 1994 4759 1931 4563 
L 5694 4563 
L 5694 4159 
L 3756 4159 
L 3756 3128 
L 5434 3128 
L 5434 2725 
L 3756 2725 
L 3756 1509 
L 6078 1509 
L 6078 1094 
L 3756 1094 
L 3756 -450 
L 3275 -450 
L 3275 1094 
L 447 1094 
L 447 1509 
L 1534 1509 
L 1534 3128 
L 3275 3128 
L 3275 4159 
L 1772 4159 
z
M 3275 2725 
L 1994 2725 
L 1994 1509 
L 3275 1509 
L 3275 2725 
z
" transform="scale(0.015625)"/>
      </defs>
      <use xlink:href="#IPAexGothic-31"/>
      <use xlink:href="#IPAexGothic-39" x="62.988281"/>
      <use xlink:href="#IPAexGothic-39" x="125.976562"/>
      <use xlink:href="#IPAexGothic-39" x="188.964844"/>
      <use xlink:href="#IPAexGothic-5e74" x="251.953125"/>
     </g>
    </g>
    <g id="line2d_45">
     <path d="M 342.52625 68.85325 
L 352.52625 68.85325 
L 362.52625 68.85325 
" style="fill: none; stroke: #ff7f0e; stroke-width: 1.5; stroke-linecap: square"/>
    </g>
    <g id="text_25">
     <!-- 2009年 -->
     <g transform="translate(370.52625 72.35325) scale(0.1 -0.1)">
      <use xlink:href="#IPAexGothic-32"/>
      <use xlink:href="#IPAexGothic-30" x="62.988281"/>
      <use xlink:href="#IPAexGothic-30" x="125.976562"/>
      <use xlink:href="#IPAexGothic-39" x="188.964844"/>
      <use xlink:href="#IPAexGothic-5e74" x="251.953125"/>
     </g>
    </g>
    <g id="line2d_46">
     <path d="M 342.52625 83.243875 
L 352.52625 83.243875 
L 362.52625 83.243875 
" style="fill: none; stroke: #2ca02c; stroke-width: 1.5; stroke-linecap: square"/>
    </g>
    <g id="text_26">
     <!-- 2019年 -->
     <g transform="translate(370.52625 86.743875) scale(0.1 -0.1)">
      <use xlink:href="#IPAexGothic-32"/>
      <use xlink:href="#IPAexGothic-30" x="62.988281"/>
      <use xlink:href="#IPAexGothic-31" x="125.976562"/>
      <use xlink:href="#IPAexGothic-39" x="188.964844"/>
      <use xlink:href="#IPAexGothic-5e74" x="251.953125"/>
     </g>
    </g>
   </g>
  </g>
 </g>
 <defs>
  <clipPath id="pee055637a9">
   <rect x="57.6" y="41.472" width="357.12" height="266.112"/>
  </clipPath>
 </defs>
</svg>
