<?xml version="1.0" encoding="utf-8" standalone="no"?>
<!DOCTYPE svg PUBLIC "-//W3C//DTD SVG 1.1//EN"
  "http://www.w3.org/Graphics/SVG/1.1/DTD/svg11.dtd">
<svg xmlns:xlink="http://www.w3.org/1999/xlink" width="460.8pt" height="345.6pt" viewBox="0 0 460.8 345.6" xmlns="http://www.w3.org/2000/svg" version="1.1">
 <metadata>
  <rdf:RDF xmlns:dc="http://purl.org/dc/elements/1.1/" xmlns:cc="http://creativecommons.org/ns#" xmlns:rdf="http://www.w3.org/1999/02/22-rdf-syntax-ns#">
   <cc:Work>
    <dc:type rdf:resource="http://purl.org/dc/dcmitype/StillImage"/>
    <dc:date>2022-12-31T13:22:12.777479</dc:date>
    <dc:format>image/svg+xml</dc:format>
    <dc:creator>
     <cc:Agent>
      <dc:title>Matplotlib v3.6.2, https://matplotlib.org/</dc:title>
     </cc:Agent>
    </dc:creator>
   </cc:Work>
  </rdf:RDF>
 </metadata>
 <defs>
  <style type="text/css">*{stroke-linejoin: round; stroke-linecap: butt}</style>
 </defs>
 <g id="figure_1">
  <g id="patch_1">
   <path d="M 0 345.6 
L 460.8 345.6 
L 460.8 0 
L 0 0 
z
" style="fill: #ffffff"/>
  </g>
  <g id="axes_1">
   <g id="patch_2">
    <path d="M 57.6 307.584 
L 414.72 307.584 
L 414.72 41.472 
L 57.6 41.472 
z
" style="fill: #ffffff"/>
   </g>
   <g id="matplotlib.axis_1">
    <g id="xtick_1">
     <g id="line2d_1">
      <defs>
       <path id="m66f026579a" d="M 0 0 
L 0 3.5 
" style="stroke: #000000; stroke-width: 0.8"/>
      </defs>
      <g>
       <use xlink:href="#m66f026579a" x="59.261023" y="307.584" style="stroke: #000000; stroke-width: 0.8"/>
      </g>
     </g>
     <g id="text_1">
      <!-- 4月1日 -->
      <g transform="translate(42.962586 322.074625) scale(0.1 -0.1)">
       <defs>
        <path id="IPAexGothic-34" d="M 3813 1159 
L 3059 1159 
L 3059 63 
L 2547 63 
L 2547 1159 
L 197 1159 
L 197 1672 
L 2456 4678 
L 3059 4678 
L 3059 1634 
L 3813 1634 
L 3813 1159 
z
M 2578 4109 
L 2559 4109 
Q 2278 3656 2003 3284 
L 759 1634 
L 2547 1634 
L 2547 3144 
Q 2547 3481 2578 4109 
z
" transform="scale(0.015625)"/>
        <path id="IPAexGothic-6708" d="M 5044 4984 
L 5044 256 
Q 5044 -78 4869 -203 
Q 4734 -300 4403 -300 
Q 3894 -300 3253 -247 
L 3169 244 
Q 3750 159 4294 159 
Q 4503 159 4547 263 
Q 4569 313 4569 438 
L 4569 1672 
L 1953 1672 
Q 1906 956 1716 475 
Q 1538 6 1116 -472 
L 744 -63 
Q 1259 475 1403 1244 
Q 1500 1772 1500 2650 
L 1500 4984 
L 5044 4984 
z
M 1981 4569 
L 1981 3541 
L 4569 3541 
L 4569 4569 
L 1981 4569 
z
M 1981 3144 
L 1981 2556 
Q 1981 2288 1975 2147 
L 1975 2069 
L 4569 2069 
L 4569 3144 
L 1981 3144 
z
" transform="scale(0.015625)"/>
        <path id="IPAexGothic-31" d="M 2463 63 
L 1900 63 
L 1900 4103 
Q 1372 3922 788 3797 
L 684 4231 
Q 1519 4441 2106 4731 
L 2463 4731 
L 2463 63 
z
" transform="scale(0.015625)"/>
        <path id="IPAexGothic-65e5" d="M 5231 4800 
L 5231 -288 
L 4744 -288 
L 4744 128 
L 1647 128 
L 1647 -288 
L 1159 -288 
L 1159 4800 
L 5231 4800 
z
M 1647 4372 
L 1647 2731 
L 4744 2731 
L 4744 4372 
L 1647 4372 
z
M 1647 2297 
L 1647 556 
L 4744 556 
L 4744 2297 
L 1647 2297 
z
" transform="scale(0.015625)"/>
       </defs>
       <use xlink:href="#IPAexGothic-34"/>
       <use xlink:href="#IPAexGothic-6708" x="62.988281"/>
       <use xlink:href="#IPAexGothic-31" x="162.988281"/>
       <use xlink:href="#IPAexGothic-65e5" x="225.976562"/>
      </g>
     </g>
    </g>
    <g id="xtick_2">
     <g id="line2d_2">
      <g>
       <use xlink:href="#m66f026579a" x="109.091721" y="307.584" style="stroke: #000000; stroke-width: 0.8"/>
      </g>
     </g>
     <g id="text_2">
      <!-- 5月1日 -->
      <g transform="translate(92.793283 322.074625) scale(0.1 -0.1)">
       <defs>
        <path id="IPAexGothic-35" d="M 1178 2603 
Q 1634 2963 2172 2963 
Q 2816 2963 3241 2528 
Q 3638 2113 3638 1497 
Q 3638 938 3297 513 
Q 2869 -31 2031 -31 
Q 959 -31 469 784 
L 938 1028 
Q 1309 434 2013 434 
Q 2466 434 2769 716 
Q 3081 1013 3081 1503 
Q 3081 1966 2806 2241 
Q 2519 2528 2056 2528 
Q 1406 2528 1072 2028 
L 591 2091 
L 884 4634 
L 3406 4634 
L 3406 4153 
L 1341 4153 
L 1134 2603 
L 1178 2603 
z
" transform="scale(0.015625)"/>
       </defs>
       <use xlink:href="#IPAexGothic-35"/>
       <use xlink:href="#IPAexGothic-6708" x="62.988281"/>
       <use xlink:href="#IPAexGothic-31" x="162.988281"/>
       <use xlink:href="#IPAexGothic-65e5" x="225.976562"/>
      </g>
     </g>
    </g>
    <g id="xtick_3">
     <g id="line2d_3">
      <g>
       <use xlink:href="#m66f026579a" x="160.583442" y="307.584" style="stroke: #000000; stroke-width: 0.8"/>
      </g>
     </g>
     <g id="text_3">
      <!-- 6月1日 -->
      <g transform="translate(144.285004 322.074625) scale(0.1 -0.1)">
       <defs>
        <path id="IPAexGothic-36" d="M 1056 2328 
Q 1509 2981 2234 2981 
Q 2906 2981 3316 2513 
Q 3675 2106 3675 1522 
Q 3675 884 3272 434 
Q 2853 -31 2178 -31 
Q 1375 -31 922 581 
Q 481 1178 481 2228 
Q 481 3425 1013 4109 
Q 1494 4725 2272 4725 
Q 3191 4725 3609 4025 
L 3150 3775 
Q 2894 4266 2300 4266 
Q 1119 4266 1031 2328 
L 1056 2328 
z
M 2141 2547 
Q 1684 2547 1384 2206 
Q 1116 1900 1116 1541 
Q 1116 1156 1353 844 
Q 1672 428 2159 428 
Q 2669 428 2941 844 
Q 3125 1128 3125 1503 
Q 3125 1944 2881 2228 
Q 2600 2547 2141 2547 
z
" transform="scale(0.015625)"/>
       </defs>
       <use xlink:href="#IPAexGothic-36"/>
       <use xlink:href="#IPAexGothic-6708" x="62.988281"/>
       <use xlink:href="#IPAexGothic-31" x="162.988281"/>
       <use xlink:href="#IPAexGothic-65e5" x="225.976562"/>
      </g>
     </g>
    </g>
    <g id="xtick_4">
     <g id="line2d_4">
      <g>
       <use xlink:href="#m66f026579a" x="210.41414" y="307.584" style="stroke: #000000; stroke-width: 0.8"/>
      </g>
     </g>
     <g id="text_4">
      <!-- 7月1日 -->
      <g transform="translate(194.115702 322.074625) scale(0.1 -0.1)">
       <defs>
        <path id="IPAexGothic-37" d="M 3597 4263 
Q 2238 2106 1778 63 
L 1131 63 
Q 1581 1834 2950 4128 
L 428 4128 
L 428 4634 
L 3597 4634 
L 3597 4263 
z
" transform="scale(0.015625)"/>
       </defs>
       <use xlink:href="#IPAexGothic-37"/>
       <use xlink:href="#IPAexGothic-6708" x="62.988281"/>
       <use xlink:href="#IPAexGothic-31" x="162.988281"/>
       <use xlink:href="#IPAexGothic-65e5" x="225.976562"/>
      </g>
     </g>
    </g>
    <g id="xtick_5">
     <g id="line2d_5">
      <g>
       <use xlink:href="#m66f026579a" x="261.90586" y="307.584" style="stroke: #000000; stroke-width: 0.8"/>
      </g>
     </g>
     <g id="text_5">
      <!-- 8月1日 -->
      <g transform="translate(245.607423 322.074625) scale(0.1 -0.1)">
       <defs>
        <path id="IPAexGothic-38" d="M 2541 2425 
Q 3700 2031 3700 1197 
Q 3700 541 3100 197 
Q 2663 -56 2016 -56 
Q 1366 -56 928 197 
Q 347 531 347 1178 
Q 347 1988 1409 2381 
L 1409 2400 
Q 481 2734 481 3509 
Q 481 4100 981 4456 
Q 1406 4756 2019 4756 
Q 2703 4756 3131 4403 
Q 3553 4069 3553 3566 
Q 3553 2706 2541 2444 
L 2541 2425 
z
M 2022 2625 
Q 2997 2856 2997 3528 
Q 2997 3916 2675 4150 
Q 2413 4347 2016 4347 
Q 1606 4347 1331 4128 
Q 1050 3897 1050 3522 
Q 1050 3150 1350 2925 
Q 1494 2809 1722 2722 
Q 1984 2616 2022 2625 
z
M 1978 2209 
Q 922 1931 922 1216 
Q 922 775 1313 556 
Q 1606 391 2009 391 
Q 2575 391 2881 697 
Q 3106 922 3106 1250 
Q 3106 1594 2794 1850 
Q 2609 1994 2350 2100 
Q 2047 2222 1978 2209 
z
" transform="scale(0.015625)"/>
       </defs>
       <use xlink:href="#IPAexGothic-38"/>
       <use xlink:href="#IPAexGothic-6708" x="62.988281"/>
       <use xlink:href="#IPAexGothic-31" x="162.988281"/>
       <use xlink:href="#IPAexGothic-65e5" x="225.976562"/>
      </g>
     </g>
    </g>
    <g id="xtick_6">
     <g id="line2d_6">
      <g>
       <use xlink:href="#m66f026579a" x="313.397581" y="307.584" style="stroke: #000000; stroke-width: 0.8"/>
      </g>
     </g>
     <g id="text_6">
      <!-- 9月1日 -->
      <g transform="translate(297.099144 322.074625) scale(0.1 -0.1)">
       <defs>
        <path id="IPAexGothic-39" d="M 2984 2356 
Q 2544 1716 1813 1716 
Q 1253 1716 847 2056 
Q 366 2459 366 3163 
Q 366 3813 769 4266 
Q 1181 4725 1869 4725 
Q 2800 4725 3241 3950 
Q 3559 3378 3559 2472 
Q 3559 1250 3041 588 
Q 2553 -31 1769 -31 
Q 859 -31 391 703 
L 853 953 
Q 1156 428 1753 428 
Q 2922 428 3009 2356 
L 2984 2356 
z
M 1888 4278 
Q 1450 4278 1172 3950 
Q 922 3653 922 3200 
Q 922 2741 1159 2478 
Q 1434 2163 1906 2163 
Q 2431 2163 2728 2572 
Q 2925 2847 2925 3169 
Q 2925 3553 2694 3863 
Q 2375 4278 1888 4278 
z
" transform="scale(0.015625)"/>
       </defs>
       <use xlink:href="#IPAexGothic-39"/>
       <use xlink:href="#IPAexGothic-6708" x="62.988281"/>
       <use xlink:href="#IPAexGothic-31" x="162.988281"/>
       <use xlink:href="#IPAexGothic-65e5" x="225.976562"/>
      </g>
     </g>
    </g>
    <g id="xtick_7">
     <g id="line2d_7">
      <g>
       <use xlink:href="#m66f026579a" x="363.228279" y="307.584" style="stroke: #000000; stroke-width: 0.8"/>
      </g>
     </g>
     <g id="text_7">
      <!-- 10月1日 -->
      <g transform="translate(343.780623 322.074625) scale(0.1 -0.1)">
       <defs>
        <path id="IPAexGothic-30" d="M 2038 4725 
Q 2881 4725 3334 3944 
Q 3694 3325 3694 2344 
Q 3694 1372 3334 741 
Q 2888 -31 2016 -31 
Q 1147 -31 700 741 
Q 341 1372 341 2350 
Q 341 3713 1000 4334 
Q 1419 4725 2038 4725 
z
M 2016 4266 
Q 1516 4266 1228 3759 
Q 934 3247 934 2344 
Q 934 1456 1222 947 
Q 1513 447 2016 447 
Q 2619 447 2909 1153 
Q 3100 1622 3100 2375 
Q 3100 3256 2806 3759 
Q 2509 4266 2016 4266 
z
" transform="scale(0.015625)"/>
       </defs>
       <use xlink:href="#IPAexGothic-31"/>
       <use xlink:href="#IPAexGothic-30" x="62.988281"/>
       <use xlink:href="#IPAexGothic-6708" x="125.976562"/>
       <use xlink:href="#IPAexGothic-31" x="225.976562"/>
       <use xlink:href="#IPAexGothic-65e5" x="288.964844"/>
      </g>
     </g>
    </g>
    <g id="xtick_8">
     <g id="line2d_8">
      <g>
       <use xlink:href="#m66f026579a" x="413.058977" y="307.584" style="stroke: #000000; stroke-width: 0.8"/>
      </g>
     </g>
     <g id="text_8">
      <!-- 10月31日 -->
      <g transform="translate(390.462102 322.074625) scale(0.1 -0.1)">
       <defs>
        <path id="IPAexGothic-33" d="M 2381 2419 
Q 3506 2216 3506 1278 
Q 3506 716 3128 356 
Q 2709 -31 1944 -31 
Q 797 -31 288 881 
L 756 1131 
Q 1109 441 1938 441 
Q 2425 441 2694 691 
Q 2950 928 2950 1291 
Q 2950 1719 2566 1978 
Q 2216 2213 1644 2213 
L 1363 2213 
L 1363 2669 
L 1656 2669 
Q 2231 2669 2534 2888 
Q 2859 3119 2859 3509 
Q 2859 3934 2494 4138 
Q 2259 4278 1931 4278 
Q 1238 4278 903 3578 
L 434 3803 
Q 897 4725 1938 4725 
Q 2597 4725 3006 4394 
Q 3416 4069 3416 3534 
Q 3416 3028 3019 2706 
Q 2763 2500 2381 2444 
L 2381 2419 
z
" transform="scale(0.015625)"/>
       </defs>
       <use xlink:href="#IPAexGothic-31"/>
       <use xlink:href="#IPAexGothic-30" x="62.988281"/>
       <use xlink:href="#IPAexGothic-6708" x="125.976562"/>
       <use xlink:href="#IPAexGothic-33" x="225.976562"/>
       <use xlink:href="#IPAexGothic-31" x="288.964844"/>
       <use xlink:href="#IPAexGothic-65e5" x="351.953125"/>
      </g>
     </g>
    </g>
    <g id="text_9">
     <!-- 月 -->
     <g transform="translate(231.16 335.46525) scale(0.1 -0.1)">
      <use xlink:href="#IPAexGothic-6708"/>
     </g>
    </g>
   </g>
   <g id="matplotlib.axis_2">
    <g id="ytick_1">
     <g id="line2d_9">
      <defs>
       <path id="m63c79b8bbc" d="M 0 0 
L -3.5 0 
" style="stroke: #000000; stroke-width: 0.8"/>
      </defs>
      <g>
       <use xlink:href="#m63c79b8bbc" x="57.6" y="307.584" style="stroke: #000000; stroke-width: 0.8"/>
      </g>
     </g>
     <g id="text_10">
      <!-- 0 -->
      <g transform="translate(44.301563 311.329312) scale(0.1 -0.1)">
       <use xlink:href="#IPAexGothic-30"/>
      </g>
     </g>
    </g>
    <g id="ytick_2">
     <g id="line2d_10">
      <g>
       <use xlink:href="#m63c79b8bbc" x="57.6" y="277.1712" style="stroke: #000000; stroke-width: 0.8"/>
      </g>
     </g>
     <g id="text_11">
      <!-- 20 -->
      <g transform="translate(38.003125 280.916512) scale(0.1 -0.1)">
       <defs>
        <path id="IPAexGothic-32" d="M 3659 63 
L 447 63 
L 447 594 
Q 825 1475 1894 2203 
L 2072 2322 
Q 2619 2697 2791 2906 
Q 2988 3153 2988 3444 
Q 2988 3772 2756 4003 
Q 2500 4259 2084 4259 
Q 1250 4259 991 3328 
L 497 3506 
Q 853 4725 2116 4725 
Q 2806 4725 3216 4316 
Q 3575 3947 3575 3425 
Q 3575 3038 3344 2722 
Q 3131 2416 2366 1938 
L 2231 1856 
Q 1256 1253 978 569 
L 3659 569 
L 3659 63 
z
" transform="scale(0.015625)"/>
       </defs>
       <use xlink:href="#IPAexGothic-32"/>
       <use xlink:href="#IPAexGothic-30" x="62.988281"/>
      </g>
     </g>
    </g>
    <g id="ytick_3">
     <g id="line2d_11">
      <g>
       <use xlink:href="#m63c79b8bbc" x="57.6" y="246.7584" style="stroke: #000000; stroke-width: 0.8"/>
      </g>
     </g>
     <g id="text_12">
      <!-- 40 -->
      <g transform="translate(38.003125 250.503712) scale(0.1 -0.1)">
       <use xlink:href="#IPAexGothic-34"/>
       <use xlink:href="#IPAexGothic-30" x="62.988281"/>
      </g>
     </g>
    </g>
    <g id="ytick_4">
     <g id="line2d_12">
      <g>
       <use xlink:href="#m63c79b8bbc" x="57.6" y="216.3456" style="stroke: #000000; stroke-width: 0.8"/>
      </g>
     </g>
     <g id="text_13">
      <!-- 60 -->
      <g transform="translate(38.003125 220.090913) scale(0.1 -0.1)">
       <use xlink:href="#IPAexGothic-36"/>
       <use xlink:href="#IPAexGothic-30" x="62.988281"/>
      </g>
     </g>
    </g>
    <g id="ytick_5">
     <g id="line2d_13">
      <g>
       <use xlink:href="#m63c79b8bbc" x="57.6" y="185.9328" style="stroke: #000000; stroke-width: 0.8"/>
      </g>
     </g>
     <g id="text_14">
      <!-- 80 -->
      <g transform="translate(38.003125 189.678112) scale(0.1 -0.1)">
       <use xlink:href="#IPAexGothic-38"/>
       <use xlink:href="#IPAexGothic-30" x="62.988281"/>
      </g>
     </g>
    </g>
    <g id="ytick_6">
     <g id="line2d_14">
      <g>
       <use xlink:href="#m63c79b8bbc" x="57.6" y="155.52" style="stroke: #000000; stroke-width: 0.8"/>
      </g>
     </g>
     <g id="text_15">
      <!-- 100 -->
      <g transform="translate(31.704688 159.265313) scale(0.1 -0.1)">
       <use xlink:href="#IPAexGothic-31"/>
       <use xlink:href="#IPAexGothic-30" x="62.988281"/>
       <use xlink:href="#IPAexGothic-30" x="125.976562"/>
      </g>
     </g>
    </g>
    <g id="ytick_7">
     <g id="line2d_15">
      <g>
       <use xlink:href="#m63c79b8bbc" x="57.6" y="125.1072" style="stroke: #000000; stroke-width: 0.8"/>
      </g>
     </g>
     <g id="text_16">
      <!-- 120 -->
      <g transform="translate(31.704688 128.852513) scale(0.1 -0.1)">
       <use xlink:href="#IPAexGothic-31"/>
       <use xlink:href="#IPAexGothic-32" x="62.988281"/>
       <use xlink:href="#IPAexGothic-30" x="125.976562"/>
      </g>
     </g>
    </g>
    <g id="ytick_8">
     <g id="line2d_16">
      <g>
       <use xlink:href="#m63c79b8bbc" x="57.6" y="94.6944" style="stroke: #000000; stroke-width: 0.8"/>
      </g>
     </g>
     <g id="text_17">
      <!-- 140 -->
      <g transform="translate(31.704688 98.439713) scale(0.1 -0.1)">
       <use xlink:href="#IPAexGothic-31"/>
       <use xlink:href="#IPAexGothic-34" x="62.988281"/>
       <use xlink:href="#IPAexGothic-30" x="125.976562"/>
      </g>
     </g>
    </g>
    <g id="ytick_9">
     <g id="line2d_17">
      <g>
       <use xlink:href="#m63c79b8bbc" x="57.6" y="64.2816" style="stroke: #000000; stroke-width: 0.8"/>
      </g>
     </g>
     <g id="text_18">
      <!-- 160 -->
      <g transform="translate(31.704688 68.026912) scale(0.1 -0.1)">
       <use xlink:href="#IPAexGothic-31"/>
       <use xlink:href="#IPAexGothic-36" x="62.988281"/>
       <use xlink:href="#IPAexGothic-30" x="125.976562"/>
      </g>
     </g>
    </g>
    <g id="text_19">
     <!-- 陽性者数（人） -->
     <g transform="translate(25.804688 209.528) rotate(-90) scale(0.1 -0.1)">
      <defs>
       <path id="IPAexGothic-967d" d="M 5000 1581 
Q 4644 241 3566 -494 
L 3206 -197 
Q 4256 428 4572 1581 
L 4091 1581 
Q 3678 500 2675 -128 
L 2325 166 
Q 3288 716 3663 1581 
L 3181 1581 
Q 2775 969 2209 556 
L 1875 859 
Q 2753 1416 3125 2341 
L 2234 2341 
L 2234 2713 
L 6075 2713 
L 6075 2341 
L 3572 2341 
Q 3491 2116 3394 1941 
L 5863 1941 
Q 5806 406 5641 -75 
Q 5513 -453 5000 -453 
Q 4738 -453 4419 -422 
L 4322 38 
Q 4669 -25 4922 -25 
Q 5194 -25 5263 225 
Q 5353 575 5409 1466 
Q 5409 1550 5416 1581 
L 5000 1581 
z
M 1594 3200 
Q 2197 2591 2197 1741 
Q 2197 1450 2134 1294 
Q 2019 1019 1606 1019 
Q 1378 1019 1134 1050 
L 1056 1506 
Q 1288 1441 1531 1441 
Q 1775 1441 1775 1831 
Q 1775 2656 1128 3175 
L 1153 3228 
Q 1500 3831 1678 4609 
L 897 4609 
L 897 -447 
L 481 -447 
L 481 5013 
L 1984 5013 
L 2203 4822 
Q 1950 3922 1594 3200 
z
M 5428 5031 
L 5428 3066 
L 2778 3066 
L 2778 5031 
L 5428 5031 
z
M 3194 4666 
L 3194 4238 
L 5013 4238 
L 5013 4666 
L 3194 4666 
z
M 3194 3891 
L 3194 3425 
L 5013 3425 
L 5013 3891 
L 3194 3891 
z
" transform="scale(0.015625)"/>
       <path id="IPAexGothic-6027" d="M 3106 3788 
L 3900 3788 
L 3900 5216 
L 4353 5216 
L 4353 3788 
L 5884 3788 
L 5884 3372 
L 4353 3372 
L 4353 2069 
L 5756 2069 
L 5756 1653 
L 4353 1653 
L 4353 153 
L 6081 153 
L 6081 -269 
L 2231 -269 
L 2231 153 
L 3900 153 
L 3900 1653 
L 2606 1653 
L 2606 2069 
L 3900 2069 
L 3900 3372 
L 2984 3372 
Q 2806 2803 2544 2325 
L 2147 2613 
Q 2638 3428 2875 4875 
L 3313 4778 
Q 3234 4309 3106 3788 
z
M 269 2188 
Q 459 2891 525 3950 
L 934 3884 
Q 884 2694 672 1931 
L 269 2188 
z
M 1997 3047 
Q 1872 3591 1650 4078 
L 1984 4256 
Q 2216 3844 2394 3291 
L 1997 3047 
z
M 1159 5313 
L 1613 5313 
L 1613 -447 
L 1159 -447 
L 1159 5313 
z
" transform="scale(0.015625)"/>
       <path id="IPAexGothic-8005" d="M 4328 4153 
Q 4694 4550 5038 5025 
L 5453 4794 
Q 4963 4138 4128 3372 
L 6041 3372 
L 6041 2963 
L 3656 2963 
Q 3319 2703 2778 2338 
L 5088 2338 
L 5088 -447 
L 4634 -447 
L 4634 -159 
L 2213 -159 
L 2213 -447 
L 1759 -447 
L 1759 1709 
Q 1141 1359 478 1075 
L 231 1472 
Q 1663 2022 2938 2913 
L 344 2913 
L 344 3322 
L 2703 3322 
L 2703 4109 
L 1125 4109 
L 1125 4500 
L 2741 4500 
L 2741 5313 
L 3194 5313 
L 3194 4500 
L 4328 4500 
L 4328 4153 
z
M 4281 4109 
L 3156 4109 
L 3156 3322 
L 3463 3322 
Q 3956 3747 4281 4109 
z
M 2213 1953 
L 2213 1306 
L 4634 1306 
L 4634 1953 
L 2213 1953 
z
M 2213 934 
L 2213 231 
L 4634 231 
L 4634 934 
L 2213 934 
z
" transform="scale(0.015625)"/>
       <path id="IPAexGothic-6570" d="M 2847 1553 
Q 2741 1006 2425 534 
Q 2625 441 3091 203 
L 2809 -188 
Q 2541 0 2144 209 
Q 1569 -291 703 -500 
L 422 -125 
Q 1263 19 1747 406 
Q 1222 650 734 816 
Q 975 1172 1147 1503 
L 1172 1553 
L 359 1553 
L 359 1925 
L 1344 1925 
Q 1406 2066 1569 2475 
L 1691 2450 
L 1691 3372 
Q 1250 2738 550 2303 
L 275 2663 
Q 1019 3013 1528 3641 
L 378 3641 
L 378 4006 
L 1691 4006 
L 1691 5313 
L 2113 5313 
L 2113 4006 
L 3297 4006 
L 3297 3641 
L 2113 3641 
L 2113 3513 
Q 2659 3291 3175 2963 
L 2956 2584 
Q 2553 2922 2113 3159 
L 2113 2372 
L 1966 2372 
Q 1928 2288 1872 2141 
Q 1806 1975 1784 1925 
L 3378 1925 
L 3378 1553 
L 2847 1553 
z
M 2419 1553 
L 1613 1553 
Q 1478 1269 1313 997 
Q 1559 909 2047 703 
Q 2313 1047 2419 1553 
z
M 4363 1163 
Q 3953 1781 3738 2638 
Q 3575 2281 3428 2016 
L 3103 2406 
Q 3675 3444 3916 5291 
L 4363 5200 
Q 4284 4666 4197 4197 
L 6009 4197 
L 6009 3775 
L 5503 3775 
Q 5397 2275 4869 1191 
Q 5419 503 6144 75 
L 5822 -378 
Q 5188 106 4631 788 
Q 4113 34 3341 -463 
L 3031 -78 
Q 3888 406 4363 1163 
z
M 4588 1594 
Q 4938 2388 5059 3775 
L 4100 3775 
Q 4041 3519 3972 3288 
Q 3981 3250 3991 3194 
Q 4175 2256 4588 1594 
z
M 1003 4116 
Q 878 4544 638 4934 
L 1053 5094 
Q 1247 4788 1438 4269 
L 1003 4116 
z
M 2316 4269 
Q 2550 4688 2688 5131 
L 3128 4997 
Q 2966 4588 2675 4128 
L 2316 4269 
z
" transform="scale(0.015625)"/>
       <path id="IPAexGothic-ff08" d="M 5419 -434 
Q 4197 769 4197 2438 
Q 4197 4097 5419 5300 
L 5919 5300 
Q 4678 4078 4678 2425 
Q 4678 788 5919 -434 
L 5419 -434 
z
" transform="scale(0.015625)"/>
       <path id="IPAexGothic-4eba" d="M 3434 5081 
L 3434 4659 
Q 3434 3131 4050 2069 
Q 4669 994 6022 275 
L 5644 -197 
Q 4359 588 3641 1863 
Q 3394 2300 3225 3009 
Q 2822 766 819 -325 
L 441 97 
Q 1856 759 2438 1972 
Q 2919 2959 2919 4634 
L 2919 5081 
L 3434 5081 
z
" transform="scale(0.015625)"/>
       <path id="IPAexGothic-ff09" d="M 481 -434 
Q 1722 788 1722 2431 
Q 1722 4066 481 5300 
L 981 5300 
Q 2203 4097 2203 2431 
Q 2203 769 981 -434 
L 481 -434 
z
" transform="scale(0.015625)"/>
      </defs>
      <use xlink:href="#IPAexGothic-967d"/>
      <use xlink:href="#IPAexGothic-6027" x="100"/>
      <use xlink:href="#IPAexGothic-8005" x="200"/>
      <use xlink:href="#IPAexGothic-6570" x="300"/>
      <use xlink:href="#IPAexGothic-ff08" x="400"/>
      <use xlink:href="#IPAexGothic-4eba" x="500"/>
      <use xlink:href="#IPAexGothic-ff09" x="600"/>
     </g>
    </g>
   </g>
   <g id="line2d_18">
    <path d="M 59.261023 307.584 
L 60.922047 307.584 
L 62.58307 304.54272 
L 64.244093 299.9808 
L 65.905116 307.584 
L 67.56614 295.41888 
L 69.227163 293.89824 
L 70.888186 299.9808 
L 72.549209 303.02208 
L 74.210233 296.93952 
L 77.532279 293.89824 
L 79.193302 296.93952 
L 80.854326 301.50144 
L 82.515349 292.3776 
L 84.176372 295.41888 
L 85.837395 296.93952 
L 87.498419 293.89824 
L 89.159442 299.9808 
L 90.820465 298.46016 
L 92.481488 301.50144 
L 94.142512 299.9808 
L 95.803535 304.54272 
L 97.464558 306.06336 
L 99.125581 306.06336 
L 100.786605 303.02208 
L 102.447628 307.584 
L 104.108651 301.50144 
L 105.769674 307.584 
L 107.430698 306.06336 
L 109.091721 307.584 
L 220.380279 307.584 
L 222.041302 303.02208 
L 223.702326 307.584 
L 227.024372 304.54272 
L 228.685395 307.584 
L 232.007442 307.584 
L 233.668465 306.06336 
L 235.329488 307.584 
L 236.990512 307.584 
L 238.651535 306.06336 
L 240.312558 306.06336 
L 241.973581 301.50144 
L 243.634605 307.584 
L 245.295628 303.02208 
L 246.956651 293.89824 
L 248.617674 289.33632 
L 250.278698 293.89824 
L 251.939721 295.41888 
L 253.600744 272.60928 
L 255.261767 261.9648 
L 256.922791 239.1552 
L 258.583814 220.90752 
L 260.244837 190.49472 
L 261.90586 237.63456 
L 263.566884 228.51072 
L 265.227907 195.05664 
L 266.88893 214.82496 
L 268.549953 188.97408 
L 270.210977 182.89152 
L 271.872 175.28832 
L 273.533023 61.24032 
L 275.194047 195.05664 
L 276.85507 242.19648 
L 278.516093 192.01536 
L 280.177116 216.3456 
L 281.83814 106.85952 
L 283.499163 195.05664 
L 285.160186 239.1552 
L 286.821209 239.1552 
L 288.482233 240.67584 
L 290.143256 226.99008 
L 291.804279 236.11392 
L 293.465302 243.71712 
L 295.126326 268.04736 
L 296.787349 258.92352 
L 298.448372 277.1712 
L 300.109395 261.9648 
L 301.770419 251.32032 
L 303.431442 258.92352 
L 305.092465 260.44416 
L 306.753488 242.19648 
L 308.414512 269.568 
L 310.075535 258.92352 
L 311.736558 274.12992 
L 313.397581 299.9808 
L 315.058605 296.93952 
L 316.719628 260.44416 
L 318.380651 278.69184 
L 320.041674 283.25376 
L 321.702698 299.9808 
L 323.363721 289.33632 
L 325.024744 295.41888 
L 328.346791 283.25376 
L 330.007814 298.46016 
L 331.668837 289.33632 
L 333.32986 298.46016 
L 334.990884 299.9808 
L 336.651907 299.9808 
L 338.31293 296.93952 
L 339.973953 296.93952 
L 341.634977 280.21248 
L 343.296 292.3776 
L 344.957023 292.3776 
L 346.618047 296.93952 
L 348.27907 289.33632 
L 349.940093 296.93952 
L 351.601116 298.46016 
L 353.26214 284.7744 
L 354.923163 277.1712 
L 356.584186 286.29504 
L 358.245209 275.65056 
L 359.906233 269.568 
L 361.567256 277.1712 
L 363.228279 261.9648 
L 364.889302 257.40288 
L 366.550326 278.69184 
L 368.211349 284.7744 
L 369.872372 265.00608 
L 371.533395 272.60928 
L 373.194419 266.52672 
L 374.855442 258.92352 
L 376.516465 281.73312 
L 378.177488 287.81568 
L 379.838512 292.3776 
L 381.499535 278.69184 
L 383.160558 281.73312 
L 384.821581 246.7584 
L 386.482605 265.00608 
L 388.143628 251.32032 
L 389.804651 275.65056 
L 391.465674 261.9648 
L 393.126698 263.48544 
L 394.787721 258.92352 
L 396.448744 249.79968 
L 399.770791 240.67584 
L 401.431814 254.3616 
L 403.092837 283.25376 
L 404.75386 251.32032 
L 406.414884 274.12992 
L 408.075907 255.88224 
L 409.73693 257.40288 
L 411.397953 263.48544 
L 413.058977 274.12992 
L 413.058977 274.12992 
" clip-path="url(#p9115e7fd80)" style="fill: none; stroke: #1f77b4; stroke-width: 1.5; stroke-linecap: square"/>
   </g>
   <g id="patch_3">
    <path d="M 57.6 307.584 
L 57.6 41.472 
" style="fill: none; stroke: #000000; stroke-width: 0.8; stroke-linejoin: miter; stroke-linecap: square"/>
   </g>
   <g id="patch_4">
    <path d="M 414.72 307.584 
L 414.72 41.472 
" style="fill: none; stroke: #000000; stroke-width: 0.8; stroke-linejoin: miter; stroke-linecap: square"/>
   </g>
   <g id="patch_5">
    <path d="M 57.6 307.584 
L 414.72 307.584 
" style="fill: none; stroke: #000000; stroke-width: 0.8; stroke-linejoin: miter; stroke-linecap: square"/>
   </g>
   <g id="patch_6">
    <path d="M 57.6 41.472 
L 414.72 41.472 
" style="fill: none; stroke: #000000; stroke-width: 0.8; stroke-linejoin: miter; stroke-linecap: square"/>
   </g>
   <g id="text_20">
    <!-- 2022年4月から10月の陽性者数の推移 -->
    <g transform="translate(131.706563 35.472) scale(0.12 -0.12)">
     <defs>
      <path id="IPAexGothic-5e74" d="M 1772 4159 
Q 1444 3422 875 2803 
L 528 3166 
Q 1322 3941 1631 5259 
L 2109 5156 
Q 1994 4759 1931 4563 
L 5694 4563 
L 5694 4159 
L 3756 4159 
L 3756 3128 
L 5434 3128 
L 5434 2725 
L 3756 2725 
L 3756 1509 
L 6078 1509 
L 6078 1094 
L 3756 1094 
L 3756 -450 
L 3275 -450 
L 3275 1094 
L 447 1094 
L 447 1509 
L 1534 1509 
L 1534 3128 
L 3275 3128 
L 3275 4159 
L 1772 4159 
z
M 3275 2725 
L 1994 2725 
L 1994 1509 
L 3275 1509 
L 3275 2725 
z
" transform="scale(0.015625)"/>
      <path id="IPAexGothic-304b" d="M 659 3384 
Q 1434 3503 2113 3581 
Q 2313 4341 2394 4972 
L 2900 4875 
Q 2759 4147 2619 3628 
L 2719 3634 
Q 2894 3641 3041 3641 
Q 4072 3641 4072 2369 
Q 4072 1128 3700 384 
Q 3478 -56 3003 -56 
Q 2591 -56 2113 231 
L 2138 775 
Q 2631 444 2925 444 
Q 3169 444 3297 706 
Q 3566 1294 3566 2388 
Q 3566 3219 3016 3219 
Q 2825 3219 2497 3194 
Q 2388 2763 2113 2047 
Q 1634 797 1119 -38 
L 678 244 
Q 1356 1238 1863 2750 
Q 1888 2819 1991 3128 
Q 1594 3081 769 2916 
L 659 3384 
z
M 5644 1753 
Q 5072 3025 4238 3916 
L 4641 4184 
Q 5494 3275 6081 2094 
L 5644 1753 
z
" transform="scale(0.015625)"/>
      <path id="IPAexGothic-3089" d="M 3700 3928 
Q 2897 4478 2156 4750 
L 2381 5166 
Q 3147 4891 3956 4384 
L 3700 3928 
z
M 1344 1281 
Q 1450 2544 1747 4038 
L 2234 3928 
Q 1994 2856 1888 1844 
Q 2897 2688 3963 2688 
Q 4531 2688 4909 2450 
Q 5441 2122 5441 1516 
Q 5441 669 4569 213 
Q 3856 -169 2584 -238 
L 2363 250 
Q 3484 250 4213 588 
Q 4909 922 4909 1509 
Q 4909 1856 4647 2059 
Q 4366 2266 3897 2266 
Q 2853 2266 1766 1141 
L 1344 1281 
z
" transform="scale(0.015625)"/>
      <path id="IPAexGothic-306e" d="M 3119 469 
Q 5275 766 5275 2425 
Q 5275 3453 4413 3925 
Q 4041 4116 3547 4159 
Q 3394 2525 2850 1400 
Q 2322 306 1722 306 
Q 1384 306 1084 666 
Q 609 1244 609 2003 
Q 609 3025 1397 3794 
Q 2184 4563 3431 4563 
Q 4306 4563 4928 4122 
Q 5813 3506 5813 2425 
Q 5813 438 3431 6 
L 3119 469 
z
M 3053 4147 
Q 2378 4044 1891 3641 
Q 1097 2981 1097 1991 
Q 1097 1366 1434 978 
Q 1581 813 1719 813 
Q 2022 813 2416 1625 
Q 2909 2638 3053 4147 
z
" transform="scale(0.015625)"/>
      <path id="IPAexGothic-63a8" d="M 3244 4063 
L 4244 4063 
Q 4481 4578 4653 5228 
L 5125 5100 
Q 4913 4484 4691 4063 
L 5906 4063 
L 5906 3666 
L 4647 3666 
L 4647 2822 
L 5747 2822 
L 5747 2438 
L 4647 2438 
L 4647 1594 
L 5747 1594 
L 5747 1216 
L 4647 1216 
L 4647 319 
L 6047 319 
L 6047 -91 
L 3244 -91 
L 3244 -481 
L 2816 -481 
L 2816 3188 
L 2791 3128 
Q 2581 2744 2366 2463 
L 2084 2797 
Q 2813 3728 3166 5284 
L 3616 5144 
Q 3431 4500 3244 4063 
z
M 3244 319 
L 4231 319 
L 4231 1216 
L 3244 1216 
L 3244 319 
z
M 3244 1594 
L 4231 1594 
L 4231 2438 
L 3244 2438 
L 3244 1594 
z
M 3244 2822 
L 4231 2822 
L 4231 3666 
L 3244 3666 
L 3244 2822 
z
M 1184 4084 
L 1184 5313 
L 1613 5313 
L 1613 4084 
L 2328 4084 
L 2328 3669 
L 1613 3669 
L 1613 2241 
Q 1997 2341 2334 2453 
L 2359 2069 
Q 1809 1884 1631 1831 
L 1613 1825 
L 1613 44 
Q 1613 -197 1522 -294 
Q 1413 -403 1081 -403 
Q 738 -403 519 -366 
L 441 97 
Q 741 38 978 38 
Q 1184 38 1184 219 
L 1184 1703 
L 1147 1697 
Q 734 1581 409 1509 
L 275 1941 
Q 722 2022 1138 2119 
Q 1147 2122 1166 2125 
Q 1178 2128 1184 2131 
L 1184 3669 
L 372 3669 
L 372 4084 
L 1184 4084 
z
" transform="scale(0.015625)"/>
      <path id="IPAexGothic-79fb" d="M 4691 2419 
L 5844 2419 
L 6069 2188 
Q 5503 1156 4763 513 
Q 4081 -75 2975 -469 
L 2681 -97 
Q 3684 194 4384 728 
Q 4097 1056 3731 1356 
Q 3381 1053 2919 819 
L 2669 1150 
Q 3853 1772 4500 2878 
L 4909 2772 
Q 4772 2528 4691 2419 
z
M 4409 2034 
Q 4219 1803 4000 1588 
Q 4375 1341 4703 1009 
Q 5219 1488 5497 2034 
L 4409 2034 
z
M 1350 2328 
Q 1009 1334 513 659 
L 263 1081 
Q 966 2022 1266 3128 
L 366 3128 
L 366 3531 
L 1350 3531 
L 1350 4400 
Q 919 4322 575 4266 
L 366 4644 
Q 1506 4809 2378 5144 
L 2700 4747 
Q 2238 4600 1784 4491 
L 1784 3531 
L 2616 3531 
L 2616 3128 
L 1784 3128 
L 1784 2688 
Q 2306 2266 2719 1803 
L 2444 1356 
Q 2106 1838 1784 2181 
L 1784 -450 
L 1350 -450 
L 1350 2328 
z
M 4275 4800 
L 5491 4800 
L 5709 4609 
Q 4763 2809 2875 2047 
L 2606 2388 
Q 3534 2722 4134 3244 
Q 3869 3519 3450 3794 
Q 3184 3569 2859 3359 
L 2591 3666 
Q 3578 4259 4056 5288 
L 4481 5191 
Q 4406 5034 4275 4800 
z
M 4019 4416 
Q 3856 4194 3700 4038 
Q 4128 3759 4372 3553 
L 4416 3513 
Q 4884 3991 5119 4416 
L 4019 4416 
z
" transform="scale(0.015625)"/>
     </defs>
     <use xlink:href="#IPAexGothic-32"/>
     <use xlink:href="#IPAexGothic-30" x="62.988281"/>
     <use xlink:href="#IPAexGothic-32" x="125.976562"/>
     <use xlink:href="#IPAexGothic-32" x="188.964844"/>
     <use xlink:href="#IPAexGothic-5e74" x="251.953125"/>
     <use xlink:href="#IPAexGothic-34" x="351.953125"/>
     <use xlink:href="#IPAexGothic-6708" x="414.941406"/>
     <use xlink:href="#IPAexGothic-304b" x="514.941406"/>
     <use xlink:href="#IPAexGothic-3089" x="614.941406"/>
     <use xlink:href="#IPAexGothic-31" x="714.941406"/>
     <use xlink:href="#IPAexGothic-30" x="777.929688"/>
     <use xlink:href="#IPAexGothic-6708" x="840.917969"/>
     <use xlink:href="#IPAexGothic-306e" x="940.917969"/>
     <use xlink:href="#IPAexGothic-967d" x="1040.917969"/>
     <use xlink:href="#IPAexGothic-6027" x="1140.917969"/>
     <use xlink:href="#IPAexGothic-8005" x="1240.917969"/>
     <use xlink:href="#IPAexGothic-6570" x="1340.917969"/>
     <use xlink:href="#IPAexGothic-306e" x="1440.917969"/>
     <use xlink:href="#IPAexGothic-63a8" x="1540.917969"/>
     <use xlink:href="#IPAexGothic-79fb" x="1640.917969"/>
    </g>
   </g>
  </g>
 </g>
 <defs>
  <clipPath id="p9115e7fd80">
   <rect x="57.6" y="41.472" width="357.12" height="266.112"/>
  </clipPath>
 </defs>
</svg>
