<?xml version="1.0" encoding="utf-8" standalone="no"?>
<!DOCTYPE svg PUBLIC "-//W3C//DTD SVG 1.1//EN"
  "http://www.w3.org/Graphics/SVG/1.1/DTD/svg11.dtd">
<svg xmlns:xlink="http://www.w3.org/1999/xlink" width="460.8pt" height="345.6pt" viewBox="0 0 460.8 345.6" xmlns="http://www.w3.org/2000/svg" version="1.1">
 <metadata>
  <rdf:RDF xmlns:dc="http://purl.org/dc/elements/1.1/" xmlns:cc="http://creativecommons.org/ns#" xmlns:rdf="http://www.w3.org/1999/02/22-rdf-syntax-ns#">
   <cc:Work>
    <dc:type rdf:resource="http://purl.org/dc/dcmitype/StillImage"/>
    <dc:date>2023-01-02T19:07:36.755914</dc:date>
    <dc:format>image/svg+xml</dc:format>
    <dc:creator>
     <cc:Agent>
      <dc:title>Matplotlib v3.6.2, https://matplotlib.org/</dc:title>
     </cc:Agent>
    </dc:creator>
   </cc:Work>
  </rdf:RDF>
 </metadata>
 <defs>
  <style type="text/css">*{stroke-linejoin: round; stroke-linecap: butt}</style>
 </defs>
 <g id="figure_1">
  <g id="patch_1">
   <path d="M 0 345.6 
L 460.8 345.6 
L 460.8 0 
L 0 0 
z
" style="fill: #ffffff"/>
  </g>
  <g id="axes_1">
   <g id="patch_2">
    <path d="M 57.6 307.584 
L 414.72 307.584 
L 414.72 41.472 
L 57.6 41.472 
z
" style="fill: #ffffff"/>
   </g>
   <g id="matplotlib.axis_1">
    <g id="xtick_1">
     <g id="line2d_1">
      <defs>
       <path id="m21fa08d3c7" d="M 0 0 
L 0 3.5 
" style="stroke: #000000; stroke-width: 0.8"/>
      </defs>
      <g>
       <use xlink:href="#m21fa08d3c7" x="95.862857" y="307.584" style="stroke: #000000; stroke-width: 0.8"/>
      </g>
     </g>
     <g id="text_1">
      <!-- 1900 -->
      <g transform="translate(83.265982 322.074625) scale(0.1 -0.1)">
       <defs>
        <path id="IPAexGothic-31" d="M 2463 63 
L 1900 63 
L 1900 4103 
Q 1372 3922 788 3797 
L 684 4231 
Q 1519 4441 2106 4731 
L 2463 4731 
L 2463 63 
z
" transform="scale(0.015625)"/>
        <path id="IPAexGothic-39" d="M 2984 2356 
Q 2544 1716 1813 1716 
Q 1253 1716 847 2056 
Q 366 2459 366 3163 
Q 366 3813 769 4266 
Q 1181 4725 1869 4725 
Q 2800 4725 3241 3950 
Q 3559 3378 3559 2472 
Q 3559 1250 3041 588 
Q 2553 -31 1769 -31 
Q 859 -31 391 703 
L 853 953 
Q 1156 428 1753 428 
Q 2922 428 3009 2356 
L 2984 2356 
z
M 1888 4278 
Q 1450 4278 1172 3950 
Q 922 3653 922 3200 
Q 922 2741 1159 2478 
Q 1434 2163 1906 2163 
Q 2431 2163 2728 2572 
Q 2925 2847 2925 3169 
Q 2925 3553 2694 3863 
Q 2375 4278 1888 4278 
z
" transform="scale(0.015625)"/>
        <path id="IPAexGothic-30" d="M 2038 4725 
Q 2881 4725 3334 3944 
Q 3694 3325 3694 2344 
Q 3694 1372 3334 741 
Q 2888 -31 2016 -31 
Q 1147 -31 700 741 
Q 341 1372 341 2350 
Q 341 3713 1000 4334 
Q 1419 4725 2038 4725 
z
M 2016 4266 
Q 1516 4266 1228 3759 
Q 934 3247 934 2344 
Q 934 1456 1222 947 
Q 1513 447 2016 447 
Q 2619 447 2909 1153 
Q 3100 1622 3100 2375 
Q 3100 3256 2806 3759 
Q 2509 4266 2016 4266 
z
" transform="scale(0.015625)"/>
       </defs>
       <use xlink:href="#IPAexGothic-31"/>
       <use xlink:href="#IPAexGothic-39" x="62.988281"/>
       <use xlink:href="#IPAexGothic-30" x="125.976562"/>
       <use xlink:href="#IPAexGothic-30" x="188.964844"/>
      </g>
     </g>
    </g>
    <g id="xtick_2">
     <g id="line2d_2">
      <g>
       <use xlink:href="#m21fa08d3c7" x="146.88" y="307.584" style="stroke: #000000; stroke-width: 0.8"/>
      </g>
     </g>
     <g id="text_2">
      <!-- 1920 -->
      <g transform="translate(134.283125 322.074625) scale(0.1 -0.1)">
       <defs>
        <path id="IPAexGothic-32" d="M 3659 63 
L 447 63 
L 447 594 
Q 825 1475 1894 2203 
L 2072 2322 
Q 2619 2697 2791 2906 
Q 2988 3153 2988 3444 
Q 2988 3772 2756 4003 
Q 2500 4259 2084 4259 
Q 1250 4259 991 3328 
L 497 3506 
Q 853 4725 2116 4725 
Q 2806 4725 3216 4316 
Q 3575 3947 3575 3425 
Q 3575 3038 3344 2722 
Q 3131 2416 2366 1938 
L 2231 1856 
Q 1256 1253 978 569 
L 3659 569 
L 3659 63 
z
" transform="scale(0.015625)"/>
       </defs>
       <use xlink:href="#IPAexGothic-31"/>
       <use xlink:href="#IPAexGothic-39" x="62.988281"/>
       <use xlink:href="#IPAexGothic-32" x="125.976562"/>
       <use xlink:href="#IPAexGothic-30" x="188.964844"/>
      </g>
     </g>
    </g>
    <g id="xtick_3">
     <g id="line2d_3">
      <g>
       <use xlink:href="#m21fa08d3c7" x="197.897143" y="307.584" style="stroke: #000000; stroke-width: 0.8"/>
      </g>
     </g>
     <g id="text_3">
      <!-- 1940 -->
      <g transform="translate(185.300268 322.074625) scale(0.1 -0.1)">
       <defs>
        <path id="IPAexGothic-34" d="M 3813 1159 
L 3059 1159 
L 3059 63 
L 2547 63 
L 2547 1159 
L 197 1159 
L 197 1672 
L 2456 4678 
L 3059 4678 
L 3059 1634 
L 3813 1634 
L 3813 1159 
z
M 2578 4109 
L 2559 4109 
Q 2278 3656 2003 3284 
L 759 1634 
L 2547 1634 
L 2547 3144 
Q 2547 3481 2578 4109 
z
" transform="scale(0.015625)"/>
       </defs>
       <use xlink:href="#IPAexGothic-31"/>
       <use xlink:href="#IPAexGothic-39" x="62.988281"/>
       <use xlink:href="#IPAexGothic-34" x="125.976562"/>
       <use xlink:href="#IPAexGothic-30" x="188.964844"/>
      </g>
     </g>
    </g>
    <g id="xtick_4">
     <g id="line2d_4">
      <g>
       <use xlink:href="#m21fa08d3c7" x="248.914286" y="307.584" style="stroke: #000000; stroke-width: 0.8"/>
      </g>
     </g>
     <g id="text_4">
      <!-- 1960 -->
      <g transform="translate(236.317411 322.074625) scale(0.1 -0.1)">
       <defs>
        <path id="IPAexGothic-36" d="M 1056 2328 
Q 1509 2981 2234 2981 
Q 2906 2981 3316 2513 
Q 3675 2106 3675 1522 
Q 3675 884 3272 434 
Q 2853 -31 2178 -31 
Q 1375 -31 922 581 
Q 481 1178 481 2228 
Q 481 3425 1013 4109 
Q 1494 4725 2272 4725 
Q 3191 4725 3609 4025 
L 3150 3775 
Q 2894 4266 2300 4266 
Q 1119 4266 1031 2328 
L 1056 2328 
z
M 2141 2547 
Q 1684 2547 1384 2206 
Q 1116 1900 1116 1541 
Q 1116 1156 1353 844 
Q 1672 428 2159 428 
Q 2669 428 2941 844 
Q 3125 1128 3125 1503 
Q 3125 1944 2881 2228 
Q 2600 2547 2141 2547 
z
" transform="scale(0.015625)"/>
       </defs>
       <use xlink:href="#IPAexGothic-31"/>
       <use xlink:href="#IPAexGothic-39" x="62.988281"/>
       <use xlink:href="#IPAexGothic-36" x="125.976562"/>
       <use xlink:href="#IPAexGothic-30" x="188.964844"/>
      </g>
     </g>
    </g>
    <g id="xtick_5">
     <g id="line2d_5">
      <g>
       <use xlink:href="#m21fa08d3c7" x="299.931429" y="307.584" style="stroke: #000000; stroke-width: 0.8"/>
      </g>
     </g>
     <g id="text_5">
      <!-- 1980 -->
      <g transform="translate(287.334554 322.074625) scale(0.1 -0.1)">
       <defs>
        <path id="IPAexGothic-38" d="M 2541 2425 
Q 3700 2031 3700 1197 
Q 3700 541 3100 197 
Q 2663 -56 2016 -56 
Q 1366 -56 928 197 
Q 347 531 347 1178 
Q 347 1988 1409 2381 
L 1409 2400 
Q 481 2734 481 3509 
Q 481 4100 981 4456 
Q 1406 4756 2019 4756 
Q 2703 4756 3131 4403 
Q 3553 4069 3553 3566 
Q 3553 2706 2541 2444 
L 2541 2425 
z
M 2022 2625 
Q 2997 2856 2997 3528 
Q 2997 3916 2675 4150 
Q 2413 4347 2016 4347 
Q 1606 4347 1331 4128 
Q 1050 3897 1050 3522 
Q 1050 3150 1350 2925 
Q 1494 2809 1722 2722 
Q 1984 2616 2022 2625 
z
M 1978 2209 
Q 922 1931 922 1216 
Q 922 775 1313 556 
Q 1606 391 2009 391 
Q 2575 391 2881 697 
Q 3106 922 3106 1250 
Q 3106 1594 2794 1850 
Q 2609 1994 2350 2100 
Q 2047 2222 1978 2209 
z
" transform="scale(0.015625)"/>
       </defs>
       <use xlink:href="#IPAexGothic-31"/>
       <use xlink:href="#IPAexGothic-39" x="62.988281"/>
       <use xlink:href="#IPAexGothic-38" x="125.976562"/>
       <use xlink:href="#IPAexGothic-30" x="188.964844"/>
      </g>
     </g>
    </g>
    <g id="xtick_6">
     <g id="line2d_6">
      <g>
       <use xlink:href="#m21fa08d3c7" x="350.948571" y="307.584" style="stroke: #000000; stroke-width: 0.8"/>
      </g>
     </g>
     <g id="text_6">
      <!-- 2000 -->
      <g transform="translate(338.351696 322.074625) scale(0.1 -0.1)">
       <use xlink:href="#IPAexGothic-32"/>
       <use xlink:href="#IPAexGothic-30" x="62.988281"/>
       <use xlink:href="#IPAexGothic-30" x="125.976562"/>
       <use xlink:href="#IPAexGothic-30" x="188.964844"/>
      </g>
     </g>
    </g>
    <g id="xtick_7">
     <g id="line2d_7">
      <g>
       <use xlink:href="#m21fa08d3c7" x="401.965714" y="307.584" style="stroke: #000000; stroke-width: 0.8"/>
      </g>
     </g>
     <g id="text_7">
      <!-- 2020 -->
      <g transform="translate(389.368839 322.074625) scale(0.1 -0.1)">
       <use xlink:href="#IPAexGothic-32"/>
       <use xlink:href="#IPAexGothic-30" x="62.988281"/>
       <use xlink:href="#IPAexGothic-32" x="125.976562"/>
       <use xlink:href="#IPAexGothic-30" x="188.964844"/>
      </g>
     </g>
    </g>
    <g id="text_8">
     <!-- 年 -->
     <g transform="translate(231.16 335.46525) scale(0.1 -0.1)">
      <defs>
       <path id="IPAexGothic-5e74" d="M 1772 4159 
Q 1444 3422 875 2803 
L 528 3166 
Q 1322 3941 1631 5259 
L 2109 5156 
Q 1994 4759 1931 4563 
L 5694 4563 
L 5694 4159 
L 3756 4159 
L 3756 3128 
L 5434 3128 
L 5434 2725 
L 3756 2725 
L 3756 1509 
L 6078 1509 
L 6078 1094 
L 3756 1094 
L 3756 -450 
L 3275 -450 
L 3275 1094 
L 447 1094 
L 447 1509 
L 1534 1509 
L 1534 3128 
L 3275 3128 
L 3275 4159 
L 1772 4159 
z
M 3275 2725 
L 1994 2725 
L 1994 1509 
L 3275 1509 
L 3275 2725 
z
" transform="scale(0.015625)"/>
      </defs>
      <use xlink:href="#IPAexGothic-5e74"/>
     </g>
    </g>
   </g>
   <g id="matplotlib.axis_2">
    <g id="ytick_1">
     <g id="line2d_8">
      <defs>
       <path id="m9e24074b8c" d="M 0 0 
L -3.5 0 
" style="stroke: #000000; stroke-width: 0.8"/>
      </defs>
      <g>
       <use xlink:href="#m9e24074b8c" x="57.6" y="307.584" style="stroke: #000000; stroke-width: 0.8"/>
      </g>
     </g>
     <g id="text_9">
      <!-- 20 -->
      <g transform="translate(38.003125 311.329312) scale(0.1 -0.1)">
       <use xlink:href="#IPAexGothic-32"/>
       <use xlink:href="#IPAexGothic-30" x="62.988281"/>
      </g>
     </g>
    </g>
    <g id="ytick_2">
     <g id="line2d_9">
      <g>
       <use xlink:href="#m9e24074b8c" x="57.6" y="254.3616" style="stroke: #000000; stroke-width: 0.8"/>
      </g>
     </g>
     <g id="text_10">
      <!-- 21 -->
      <g transform="translate(38.003125 258.106912) scale(0.1 -0.1)">
       <use xlink:href="#IPAexGothic-32"/>
       <use xlink:href="#IPAexGothic-31" x="62.988281"/>
      </g>
     </g>
    </g>
    <g id="ytick_3">
     <g id="line2d_10">
      <g>
       <use xlink:href="#m9e24074b8c" x="57.6" y="201.1392" style="stroke: #000000; stroke-width: 0.8"/>
      </g>
     </g>
     <g id="text_11">
      <!-- 22 -->
      <g transform="translate(38.003125 204.884512) scale(0.1 -0.1)">
       <use xlink:href="#IPAexGothic-32"/>
       <use xlink:href="#IPAexGothic-32" x="62.988281"/>
      </g>
     </g>
    </g>
    <g id="ytick_4">
     <g id="line2d_11">
      <g>
       <use xlink:href="#m9e24074b8c" x="57.6" y="147.9168" style="stroke: #000000; stroke-width: 0.8"/>
      </g>
     </g>
     <g id="text_12">
      <!-- 23 -->
      <g transform="translate(38.003125 151.662113) scale(0.1 -0.1)">
       <defs>
        <path id="IPAexGothic-33" d="M 2381 2419 
Q 3506 2216 3506 1278 
Q 3506 716 3128 356 
Q 2709 -31 1944 -31 
Q 797 -31 288 881 
L 756 1131 
Q 1109 441 1938 441 
Q 2425 441 2694 691 
Q 2950 928 2950 1291 
Q 2950 1719 2566 1978 
Q 2216 2213 1644 2213 
L 1363 2213 
L 1363 2669 
L 1656 2669 
Q 2231 2669 2534 2888 
Q 2859 3119 2859 3509 
Q 2859 3934 2494 4138 
Q 2259 4278 1931 4278 
Q 1238 4278 903 3578 
L 434 3803 
Q 897 4725 1938 4725 
Q 2597 4725 3006 4394 
Q 3416 4069 3416 3534 
Q 3416 3028 3019 2706 
Q 2763 2500 2381 2444 
L 2381 2419 
z
" transform="scale(0.015625)"/>
       </defs>
       <use xlink:href="#IPAexGothic-32"/>
       <use xlink:href="#IPAexGothic-33" x="62.988281"/>
      </g>
     </g>
    </g>
    <g id="ytick_5">
     <g id="line2d_12">
      <g>
       <use xlink:href="#m9e24074b8c" x="57.6" y="94.6944" style="stroke: #000000; stroke-width: 0.8"/>
      </g>
     </g>
     <g id="text_13">
      <!-- 24 -->
      <g transform="translate(38.003125 98.439712) scale(0.1 -0.1)">
       <use xlink:href="#IPAexGothic-32"/>
       <use xlink:href="#IPAexGothic-34" x="62.988281"/>
      </g>
     </g>
    </g>
    <g id="ytick_6">
     <g id="line2d_13">
      <g>
       <use xlink:href="#m9e24074b8c" x="57.6" y="41.472" style="stroke: #000000; stroke-width: 0.8"/>
      </g>
     </g>
     <g id="text_14">
      <!-- 25 -->
      <g transform="translate(38.003125 45.217312) scale(0.1 -0.1)">
       <defs>
        <path id="IPAexGothic-35" d="M 1178 2603 
Q 1634 2963 2172 2963 
Q 2816 2963 3241 2528 
Q 3638 2113 3638 1497 
Q 3638 938 3297 513 
Q 2869 -31 2031 -31 
Q 959 -31 469 784 
L 938 1028 
Q 1309 434 2013 434 
Q 2466 434 2769 716 
Q 3081 1013 3081 1503 
Q 3081 1966 2806 2241 
Q 2519 2528 2056 2528 
Q 1406 2528 1072 2028 
L 591 2091 
L 884 4634 
L 3406 4634 
L 3406 4153 
L 1341 4153 
L 1134 2603 
L 1178 2603 
z
" transform="scale(0.015625)"/>
       </defs>
       <use xlink:href="#IPAexGothic-32"/>
       <use xlink:href="#IPAexGothic-35" x="62.988281"/>
      </g>
     </g>
    </g>
    <g id="text_15">
     <!-- 気温[°C] -->
     <g transform="translate(32.103125 192.851438) rotate(-90) scale(0.1 -0.1)">
      <defs>
       <path id="IPAexGothic-6c17" d="M 1863 4659 
L 5594 4659 
L 5594 4263 
L 1672 4263 
Q 1306 3572 831 3059 
L 531 3397 
Q 1266 4181 1600 5288 
L 2069 5203 
Q 1981 4941 1863 4659 
z
M 5000 2950 
L 5006 2400 
Q 5025 1044 5222 466 
Q 5328 184 5394 184 
Q 5513 184 5638 1191 
L 6047 916 
Q 5847 -450 5422 -450 
Q 5128 -450 4856 147 
Q 4550 819 4550 2381 
L 4550 2553 
L 672 2553 
L 672 2950 
L 5000 2950 
z
M 2388 1106 
Q 1741 1553 1069 1875 
L 1350 2188 
Q 1991 1878 2606 1478 
L 2669 1441 
Q 3034 1894 3250 2431 
L 3681 2241 
Q 3403 1634 3047 1184 
Q 3672 744 4269 231 
L 3944 -128 
Q 3384 391 2759 844 
Q 2031 50 928 -372 
L 653 31 
Q 1728 403 2356 1069 
L 2388 1106 
z
M 1516 3822 
L 4991 3822 
L 4991 3425 
L 1516 3425 
L 1516 3822 
z
" transform="scale(0.015625)"/>
       <path id="IPAexGothic-6e29" d="M 5344 4984 
L 5344 2669 
L 2381 2669 
L 2381 4984 
L 5344 4984 
z
M 2822 4613 
L 2822 4025 
L 4909 4025 
L 4909 4613 
L 2822 4613 
z
M 2822 3659 
L 2822 3041 
L 4909 3041 
L 4909 3659 
L 2822 3659 
z
M 5628 2131 
L 5628 178 
L 6094 178 
L 6094 -225 
L 1631 -225 
L 1631 178 
L 2138 178 
L 2138 2131 
L 5628 2131 
z
M 2553 1747 
L 2553 178 
L 3169 178 
L 3169 1747 
L 2553 1747 
z
M 5213 178 
L 5213 1747 
L 4572 1747 
L 4572 178 
L 5213 178 
z
M 3566 1747 
L 3566 178 
L 4175 178 
L 4175 1747 
L 3566 1747 
z
M 1613 3859 
Q 1247 4297 706 4716 
L 1013 5063 
Q 1494 4731 1934 4244 
L 1613 3859 
z
M 1422 2388 
Q 975 2903 475 3250 
L 781 3609 
Q 1338 3225 1747 2759 
L 1422 2388 
z
M 353 19 
Q 969 806 1466 1919 
L 1800 1563 
Q 1303 422 731 -372 
L 353 19 
z
" transform="scale(0.015625)"/>
       <path id="IPAexGothic-5b" d="M 1706 -991 
L 581 -991 
L 581 4750 
L 1706 4750 
L 1706 4438 
L 1028 4438 
L 1028 -678 
L 1706 -678 
L 1706 -991 
z
" transform="scale(0.015625)"/>
       <path id="IPAexGothic-b0" d="M 1056 5300 
Q 1363 5300 1581 5063 
Q 1766 4856 1766 4584 
Q 1766 4372 1650 4197 
Q 1441 3866 1050 3866 
Q 878 3866 709 3956 
Q 331 4159 331 4591 
Q 331 4944 631 5166 
Q 816 5300 1056 5300 
z
M 1050 5019 
Q 916 5019 784 4928 
Q 613 4803 613 4584 
Q 613 4472 669 4366 
Q 794 4147 1056 4147 
Q 1200 4147 1313 4231 
Q 1484 4366 1484 4584 
Q 1484 4791 1331 4916 
Q 1209 5019 1050 5019 
z
" transform="scale(0.015625)"/>
       <path id="IPAexGothic-43" d="M 4353 1088 
Q 4181 694 3859 428 
Q 3313 -31 2559 -31 
Q 1588 -31 959 653 
Q 378 1294 378 2331 
Q 378 3406 1013 4078 
Q 1619 4725 2534 4725 
Q 3813 4725 4322 3628 
L 3809 3391 
Q 3425 4238 2541 4238 
Q 1891 4238 1453 3744 
Q 994 3216 994 2322 
Q 994 1550 1384 1056 
Q 1841 472 2563 472 
Q 3456 472 3878 1319 
L 4353 1088 
z
" transform="scale(0.015625)"/>
       <path id="IPAexGothic-5d" d="M 1322 -991 
L 197 -991 
L 197 -678 
L 875 -678 
L 875 4438 
L 197 4438 
L 197 4750 
L 1322 4750 
L 1322 -991 
z
" transform="scale(0.015625)"/>
      </defs>
      <use xlink:href="#IPAexGothic-6c17"/>
      <use xlink:href="#IPAexGothic-6e29" x="100"/>
      <use xlink:href="#IPAexGothic-5b" x="200"/>
      <use xlink:href="#IPAexGothic-b0" x="229.980469"/>
      <use xlink:href="#IPAexGothic-43" x="263.964844"/>
      <use xlink:href="#IPAexGothic-5d" x="336.474609"/>
     </g>
    </g>
   </g>
   <g id="line2d_14">
    <path d="M 72.905143 211.78368 
L 75.456 206.46144 
L 78.006857 222.42816 
L 80.557714 201.1392 
L 83.108571 217.10592 
L 85.659429 185.17248 
L 88.210286 174.528 
L 90.761143 169.20576 
L 93.312 206.46144 
L 95.862857 185.17248 
L 98.413714 222.42816 
L 100.964571 206.46144 
L 103.515429 201.1392 
L 106.066286 217.10592 
L 108.617143 179.85024 
L 111.168 169.20576 
L 113.718857 211.78368 
L 116.269714 206.46144 
L 118.820571 190.49472 
L 121.371429 195.81696 
L 123.922286 179.85024 
L 131.574857 179.85024 
L 134.125714 169.20576 
L 136.676571 163.88352 
L 139.227429 238.39488 
L 141.778286 206.46144 
L 144.329143 179.85024 
L 146.88 190.49472 
L 149.430857 206.46144 
L 151.981714 201.1392 
M 159.634286 243.71712 
L 162.185143 227.7504 
L 164.736 217.10592 
L 167.286857 211.78368 
L 169.837714 217.10592 
L 172.388571 179.85024 
L 174.939429 174.528 
L 177.490286 222.42816 
L 180.041143 201.1392 
L 182.592 222.42816 
L 185.142857 201.1392 
L 187.693714 211.78368 
L 190.244571 179.85024 
L 192.795429 195.81696 
L 195.346286 227.7504 
L 197.897143 217.10592 
L 200.448 179.85024 
L 202.998857 174.528 
M 213.202286 185.17248 
L 215.753143 249.03936 
L 218.304 195.81696 
L 220.854857 206.46144 
L 223.405714 195.81696 
M 228.507429 147.9168 
L 231.058286 179.85024 
L 233.609143 169.20576 
L 236.16 185.17248 
L 238.710857 190.49472 
L 241.261714 190.49472 
L 243.812571 185.17248 
L 246.363429 163.88352 
L 248.914286 174.528 
L 251.465143 169.20576 
L 254.016 195.81696 
L 256.566857 201.1392 
L 259.117714 158.56128 
L 261.668571 206.46144 
L 264.219429 174.528 
L 266.770286 179.85024 
L 269.321143 211.78368 
L 271.872 169.20576 
L 274.422857 185.17248 
L 276.973714 179.85024 
L 279.524571 169.20576 
L 282.075429 190.49472 
L 287.177143 190.49472 
L 289.728 201.1392 
L 292.278857 169.20576 
L 294.829714 195.81696 
L 299.931429 174.528 
L 302.482286 190.49472 
L 305.033143 169.20576 
L 307.584 153.23904 
L 310.134857 185.17248 
L 312.685714 174.528 
L 315.236571 190.49472 
L 317.787429 142.59456 
L 320.338286 147.9168 
L 322.889143 163.88352 
L 325.44 147.9168 
L 327.990857 126.62784 
L 330.541714 153.23904 
L 333.092571 142.59456 
L 335.643429 147.9168 
L 338.194286 169.20576 
L 343.296 147.9168 
L 345.846857 73.40544 
L 348.397714 121.3056 
L 350.948571 147.9168 
L 353.499429 126.62784 
L 356.050286 137.27232 
L 358.601143 126.62784 
L 361.152 126.62784 
L 363.702857 142.59456 
L 366.253714 121.3056 
L 368.804571 121.3056 
L 371.355429 126.62784 
L 373.906286 126.62784 
L 376.457143 142.59456 
L 379.008 153.23904 
L 381.558857 147.9168 
L 384.109714 131.95008 
L 386.660571 142.59456 
L 391.762286 89.37216 
L 394.313143 115.98336 
L 396.864 121.3056 
L 399.414857 100.01664 
L 401.965714 105.33888 
L 404.516571 115.98336 
L 407.067429 110.66112 
L 407.067429 110.66112 
" clip-path="url(#pb63fcbb4ed)" style="fill: none; stroke: #1f77b4; stroke-width: 1.5; stroke-linecap: square"/>
   </g>
   <g id="line2d_15">
    <path d="M 266.770286 233.07264 
L 269.321143 265.00608 
L 271.872 211.78368 
L 274.422857 233.07264 
L 276.973714 227.7504 
L 279.524571 227.7504 
L 282.075429 211.78368 
L 284.626286 211.78368 
L 287.177143 227.7504 
L 289.728 249.03936 
L 292.278857 217.10592 
L 294.829714 243.71712 
L 297.380571 222.42816 
L 299.931429 217.10592 
L 302.482286 233.07264 
L 305.033143 217.10592 
L 307.584 190.49472 
L 310.134857 217.10592 
L 312.685714 211.78368 
L 315.236571 233.07264 
L 317.787429 179.85024 
L 320.338286 174.528 
L 322.889143 190.49472 
L 325.44 174.528 
L 327.990857 153.23904 
L 330.541714 185.17248 
L 333.092571 174.528 
L 335.643429 174.528 
L 338.194286 195.81696 
L 343.296 174.528 
L 345.846857 105.33888 
L 348.397714 153.23904 
L 350.948571 169.20576 
L 353.499429 153.23904 
L 356.050286 169.20576 
L 358.601143 153.23904 
L 361.152 158.56128 
L 363.702857 174.528 
L 366.253714 147.9168 
L 371.355429 158.56128 
L 373.906286 153.23904 
L 376.457143 163.88352 
L 379.008 179.85024 
L 381.558857 174.528 
L 384.109714 158.56128 
L 386.660571 174.528 
L 389.211429 142.59456 
L 391.762286 115.98336 
L 394.313143 142.59456 
L 396.864 147.9168 
L 399.414857 126.62784 
L 401.965714 137.27232 
L 404.516571 142.59456 
L 407.067429 137.27232 
L 407.067429 137.27232 
" clip-path="url(#pb63fcbb4ed)" style="fill: none; stroke: #ff7f0e; stroke-width: 1.5; stroke-linecap: square"/>
   </g>
   <g id="patch_3">
    <path d="M 57.6 307.584 
L 57.6 41.472 
" style="fill: none; stroke: #000000; stroke-width: 0.8; stroke-linejoin: miter; stroke-linecap: square"/>
   </g>
   <g id="patch_4">
    <path d="M 414.72 307.584 
L 414.72 41.472 
" style="fill: none; stroke: #000000; stroke-width: 0.8; stroke-linejoin: miter; stroke-linecap: square"/>
   </g>
   <g id="patch_5">
    <path d="M 57.6 307.584 
L 414.72 307.584 
" style="fill: none; stroke: #000000; stroke-width: 0.8; stroke-linejoin: miter; stroke-linecap: square"/>
   </g>
   <g id="patch_6">
    <path d="M 57.6 41.472 
L 414.72 41.472 
" style="fill: none; stroke: #000000; stroke-width: 0.8; stroke-linejoin: miter; stroke-linecap: square"/>
   </g>
   <g id="text_16">
    <!-- 観測開始時から年ごとの気温のグラフ -->
    <g transform="translate(134.16 35.472) scale(0.12 -0.12)">
     <defs>
      <path id="IPAexGothic-89b3" d="M 1919 4369 
Q 1841 4025 1747 3725 
L 3150 3725 
L 3150 3372 
L 1619 3372 
Q 1459 2959 1294 2675 
L 1825 2675 
Q 1950 2972 2016 3250 
L 2406 3141 
Q 2294 2831 2203 2675 
L 3078 2675 
L 3078 2344 
L 2209 2344 
L 2209 1925 
L 2944 1925 
L 2944 1613 
L 2209 1613 
L 2209 1191 
L 2944 1191 
L 2944 878 
L 2209 878 
L 2209 422 
L 3109 422 
L 3109 91 
L 1191 91 
L 1191 -288 
L 806 -288 
L 806 1944 
Q 606 1666 441 1503 
L 213 1856 
Q 816 2478 1209 3372 
L 353 3372 
L 353 3725 
L 1350 3725 
Q 1453 4019 1538 4369 
L 1094 4369 
Q 916 4025 722 3794 
L 441 4081 
Q 863 4603 1044 5309 
L 1441 5241 
Q 1366 4997 1253 4722 
L 3053 4722 
L 3053 4369 
L 1919 4369 
z
M 1191 2344 
L 1191 1925 
L 1850 1925 
L 1850 2344 
L 1191 2344 
z
M 1191 1613 
L 1191 1191 
L 1850 1191 
L 1850 1613 
L 1191 1613 
z
M 1191 878 
L 1191 422 
L 1850 422 
L 1850 878 
L 1191 878 
z
M 5128 1638 
L 5128 238 
Q 5128 63 5397 63 
Q 5663 63 5709 216 
Q 5759 403 5778 966 
L 6163 806 
Q 6106 81 6028 -109 
Q 5925 -359 5363 -359 
Q 4719 -359 4719 6 
L 4719 1638 
L 4253 1638 
Q 4231 813 4003 372 
Q 3744 -113 3100 -441 
L 2813 -84 
Q 3444 184 3663 653 
Q 3834 1031 3841 1638 
L 3369 1638 
L 3369 5044 
L 5709 5044 
L 5709 1638 
L 5128 1638 
z
M 3778 4672 
L 3778 4031 
L 5306 4031 
L 5306 4672 
L 3778 4672 
z
M 3778 3672 
L 3778 3034 
L 5306 3034 
L 5306 3672 
L 3778 3672 
z
M 3778 2675 
L 3778 2009 
L 5306 2009 
L 5306 2675 
L 3778 2675 
z
" transform="scale(0.015625)"/>
      <path id="IPAexGothic-6e2c" d="M 3856 4884 
L 3856 1081 
L 2059 1081 
L 2059 4884 
L 3856 4884 
z
M 2456 4494 
L 2456 3756 
L 3459 3756 
L 3459 4494 
L 2456 4494 
z
M 2456 3384 
L 2456 2656 
L 3459 2656 
L 3459 3384 
L 2456 3384 
z
M 2456 2284 
L 2456 1478 
L 3459 1478 
L 3459 2284 
L 2456 2284 
z
M 1413 3891 
Q 1000 4428 556 4763 
L 856 5100 
Q 1309 4753 1734 4269 
L 1413 3891 
z
M 1222 2394 
Q 816 2878 325 3256 
L 625 3591 
Q 1141 3231 1528 2778 
L 1222 2394 
z
M 375 -78 
Q 916 800 1297 1906 
L 1669 1619 
Q 1284 478 759 -428 
L 375 -78 
z
M 3819 -256 
Q 3478 319 3128 716 
L 3469 966 
Q 3834 581 4172 63 
L 3819 -256 
z
M 4378 4513 
L 4806 4513 
L 4806 959 
L 4378 959 
L 4378 4513 
z
M 1638 -109 
Q 2103 300 2450 984 
L 2828 763 
Q 2425 -6 1944 -488 
L 1638 -109 
z
M 5419 5081 
L 5853 5081 
L 5853 109 
Q 5853 -391 5297 -391 
Q 4919 -391 4541 -359 
L 4441 109 
Q 4928 50 5219 50 
Q 5419 50 5419 244 
L 5419 5081 
z
" transform="scale(0.015625)"/>
      <path id="IPAexGothic-958b" d="M 2913 5013 
L 2913 3097 
L 1063 3097 
L 1063 -450 
L 609 -450 
L 609 5013 
L 2913 5013 
z
M 1063 4653 
L 1063 4225 
L 2491 4225 
L 2491 4653 
L 1063 4653 
z
M 1063 3900 
L 1063 3444 
L 2491 3444 
L 2491 3900 
L 1063 3900 
z
M 5781 5013 
L 5781 78 
Q 5781 -231 5647 -325 
Q 5538 -409 5238 -409 
Q 4809 -409 4488 -366 
L 4425 103 
Q 4791 38 5122 38 
Q 5328 38 5328 238 
L 5328 3097 
L 3438 3097 
L 3438 5013 
L 5781 5013 
z
M 3853 4653 
L 3853 4225 
L 5328 4225 
L 5328 4653 
L 3853 4653 
z
M 3853 3900 
L 3853 3444 
L 5328 3444 
L 5328 3900 
L 3853 3900 
z
M 4028 2266 
L 4028 1556 
L 5000 1556 
L 5000 1184 
L 4047 1184 
L 4047 -159 
L 3625 -159 
L 3625 1184 
L 2809 1184 
Q 2731 156 1850 -313 
L 1550 13 
Q 2319 347 2388 1184 
L 1403 1184 
L 1403 1556 
L 2394 1556 
L 2394 2266 
L 1594 2266 
L 1594 2619 
L 4803 2619 
L 4803 2266 
L 4028 2266 
z
M 3606 1556 
L 3606 2266 
L 2816 2266 
L 2816 1556 
L 3606 1556 
z
" transform="scale(0.015625)"/>
      <path id="IPAexGothic-59cb" d="M 2541 4019 
Q 2434 2181 2022 1184 
L 2106 1113 
Q 2303 953 2656 641 
L 2394 238 
Q 2022 619 1831 794 
Q 1453 78 763 -500 
L 466 -134 
Q 1097 341 1503 1088 
Q 1294 1275 959 1534 
Q 956 1525 897 1341 
Q 853 1197 813 1069 
L 453 1228 
Q 756 2213 1006 3553 
L 1019 3616 
L 403 3616 
L 403 4019 
L 1088 4019 
L 1119 4216 
Q 1172 4519 1288 5300 
L 1703 5216 
Q 1609 4541 1516 4019 
L 2541 4019 
z
M 2088 3616 
L 1441 3616 
Q 1316 2897 1113 2119 
L 1063 1906 
Q 1384 1691 1684 1459 
Q 1953 2122 2081 3538 
L 2088 3616 
z
M 3053 3103 
Q 3541 4078 3878 5228 
L 4341 5106 
Q 3984 4053 3547 3194 
L 3506 3122 
L 3666 3128 
Q 3988 3138 4788 3194 
L 5275 3225 
Q 5038 3603 4609 4159 
L 4941 4378 
Q 5619 3584 6100 2719 
L 5722 2438 
Q 5572 2725 5478 2881 
Q 4375 2738 2675 2669 
L 2528 3091 
Q 2616 3094 2819 3097 
Q 2972 3100 3053 3103 
z
M 5650 2163 
L 5650 -416 
L 5209 -416 
L 5209 -50 
L 3384 -50 
L 3384 -416 
L 2944 -416 
L 2944 2163 
L 5650 2163 
z
M 3384 1766 
L 3384 347 
L 5209 347 
L 5209 1766 
L 3384 1766 
z
" transform="scale(0.015625)"/>
      <path id="IPAexGothic-6642" d="M 2328 4728 
L 2328 563 
L 934 563 
L 934 56 
L 519 56 
L 519 4728 
L 2328 4728 
z
M 934 4331 
L 934 2881 
L 1906 2881 
L 1906 4331 
L 934 4331 
z
M 934 2497 
L 934 953 
L 1906 953 
L 1906 2497 
L 934 2497 
z
M 3938 4372 
L 3938 5313 
L 4378 5313 
L 4378 4372 
L 5772 4372 
L 5772 3981 
L 4378 3981 
L 4378 3194 
L 6072 3194 
L 6072 2803 
L 5203 2803 
L 5203 2047 
L 5959 2047 
L 5959 1650 
L 5216 1650 
L 5216 31 
Q 5216 -447 4691 -447 
Q 4394 -447 3888 -391 
L 3784 78 
Q 4272 0 4591 0 
Q 4775 0 4775 172 
L 4775 1650 
L 2581 1650 
L 2581 2047 
L 4763 2047 
L 4763 2803 
L 2538 2803 
L 2538 3194 
L 3938 3194 
L 3938 3981 
L 2716 3981 
L 2716 4372 
L 3938 4372 
z
M 3669 384 
Q 3331 950 2956 1325 
L 3291 1575 
Q 3719 1147 4025 659 
L 3669 384 
z
" transform="scale(0.015625)"/>
      <path id="IPAexGothic-304b" d="M 659 3384 
Q 1434 3503 2113 3581 
Q 2313 4341 2394 4972 
L 2900 4875 
Q 2759 4147 2619 3628 
L 2719 3634 
Q 2894 3641 3041 3641 
Q 4072 3641 4072 2369 
Q 4072 1128 3700 384 
Q 3478 -56 3003 -56 
Q 2591 -56 2113 231 
L 2138 775 
Q 2631 444 2925 444 
Q 3169 444 3297 706 
Q 3566 1294 3566 2388 
Q 3566 3219 3016 3219 
Q 2825 3219 2497 3194 
Q 2388 2763 2113 2047 
Q 1634 797 1119 -38 
L 678 244 
Q 1356 1238 1863 2750 
Q 1888 2819 1991 3128 
Q 1594 3081 769 2916 
L 659 3384 
z
M 5644 1753 
Q 5072 3025 4238 3916 
L 4641 4184 
Q 5494 3275 6081 2094 
L 5644 1753 
z
" transform="scale(0.015625)"/>
      <path id="IPAexGothic-3089" d="M 3700 3928 
Q 2897 4478 2156 4750 
L 2381 5166 
Q 3147 4891 3956 4384 
L 3700 3928 
z
M 1344 1281 
Q 1450 2544 1747 4038 
L 2234 3928 
Q 1994 2856 1888 1844 
Q 2897 2688 3963 2688 
Q 4531 2688 4909 2450 
Q 5441 2122 5441 1516 
Q 5441 669 4569 213 
Q 3856 -169 2584 -238 
L 2363 250 
Q 3484 250 4213 588 
Q 4909 922 4909 1509 
Q 4909 1856 4647 2059 
Q 4366 2266 3897 2266 
Q 2853 2266 1766 1141 
L 1344 1281 
z
" transform="scale(0.015625)"/>
      <path id="IPAexGothic-3054" d="M 1525 4409 
Q 2284 4350 2881 4350 
Q 3778 4350 4481 4447 
L 4591 4019 
Q 3778 3791 2856 2981 
L 2497 3256 
Q 3028 3653 3488 3938 
Q 2969 3897 2497 3897 
Q 1975 3897 1544 3944 
L 1525 4409 
z
M 5122 178 
Q 4244 0 3181 0 
Q 2194 0 1594 331 
Q 1038 641 1038 1184 
Q 1038 1725 1538 2234 
L 1922 1991 
Q 1525 1631 1525 1247 
Q 1525 488 3169 488 
Q 4166 488 5069 709 
L 5122 178 
z
M 5959 4250 
Q 5597 4791 5203 5119 
L 5506 5350 
Q 5888 5041 6278 4525 
L 5959 4250 
z
M 5391 3763 
Q 5100 4253 4653 4653 
L 4966 4897 
Q 5338 4588 5722 4038 
L 5391 3763 
z
" transform="scale(0.015625)"/>
      <path id="IPAexGothic-3068" d="M 5222 56 
Q 4200 -72 3450 -72 
Q 2478 -72 1941 113 
Q 1184 372 1184 1038 
Q 1184 1584 1594 2009 
Q 1941 2369 2656 2725 
Q 2231 3734 1972 4878 
L 2491 4978 
Q 2706 3884 3078 2950 
Q 4250 3447 4756 3616 
L 4978 3150 
Q 3181 2575 2409 2078 
Q 1691 1613 1691 1113 
Q 1691 403 3322 403 
Q 4125 403 5134 563 
L 5222 56 
z
" transform="scale(0.015625)"/>
      <path id="IPAexGothic-306e" d="M 3119 469 
Q 5275 766 5275 2425 
Q 5275 3453 4413 3925 
Q 4041 4116 3547 4159 
Q 3394 2525 2850 1400 
Q 2322 306 1722 306 
Q 1384 306 1084 666 
Q 609 1244 609 2003 
Q 609 3025 1397 3794 
Q 2184 4563 3431 4563 
Q 4306 4563 4928 4122 
Q 5813 3506 5813 2425 
Q 5813 438 3431 6 
L 3119 469 
z
M 3053 4147 
Q 2378 4044 1891 3641 
Q 1097 2981 1097 1991 
Q 1097 1366 1434 978 
Q 1581 813 1719 813 
Q 2022 813 2416 1625 
Q 2909 2638 3053 4147 
z
" transform="scale(0.015625)"/>
      <path id="IPAexGothic-30b0" d="M 4769 4128 
L 5106 3878 
Q 4728 2272 3866 1238 
Q 3106 328 1863 -288 
L 1491 122 
Q 2709 628 3475 1563 
Q 4238 2491 4525 3669 
L 2738 3669 
Q 2022 2591 1191 1897 
L 813 2247 
Q 2163 3338 2766 4959 
L 3256 4819 
Q 3197 4609 2975 4128 
L 4769 4128 
z
M 6009 4422 
Q 5647 4966 5253 5294 
L 5556 5522 
Q 5941 5213 6328 4697 
L 6009 4422 
z
M 5416 3956 
Q 5125 4447 4678 4844 
L 4991 5088 
Q 5363 4781 5747 4231 
L 5416 3956 
z
" transform="scale(0.015625)"/>
      <path id="IPAexGothic-30e9" d="M 1447 4709 
L 4922 4709 
L 4922 4234 
L 1447 4234 
L 1447 4709 
z
M 897 3303 
L 5172 3303 
L 5478 3013 
Q 5069 1669 4219 875 
Q 3475 181 2306 -181 
L 1972 294 
Q 4150 784 4834 2828 
L 897 2828 
L 897 3303 
z
" transform="scale(0.015625)"/>
      <path id="IPAexGothic-30d5" d="M 4966 4294 
L 5263 4019 
Q 4819 894 1966 -97 
L 1600 353 
Q 4234 1156 4684 3822 
L 1044 3756 
L 1044 4244 
L 4966 4294 
z
" transform="scale(0.015625)"/>
     </defs>
     <use xlink:href="#IPAexGothic-89b3"/>
     <use xlink:href="#IPAexGothic-6e2c" x="100"/>
     <use xlink:href="#IPAexGothic-958b" x="200"/>
     <use xlink:href="#IPAexGothic-59cb" x="300"/>
     <use xlink:href="#IPAexGothic-6642" x="400"/>
     <use xlink:href="#IPAexGothic-304b" x="500"/>
     <use xlink:href="#IPAexGothic-3089" x="600"/>
     <use xlink:href="#IPAexGothic-5e74" x="700"/>
     <use xlink:href="#IPAexGothic-3054" x="800"/>
     <use xlink:href="#IPAexGothic-3068" x="900"/>
     <use xlink:href="#IPAexGothic-306e" x="1000"/>
     <use xlink:href="#IPAexGothic-6c17" x="1100"/>
     <use xlink:href="#IPAexGothic-6e29" x="1200"/>
     <use xlink:href="#IPAexGothic-306e" x="1300"/>
     <use xlink:href="#IPAexGothic-30b0" x="1400"/>
     <use xlink:href="#IPAexGothic-30e9" x="1500"/>
     <use xlink:href="#IPAexGothic-30d5" x="1600"/>
    </g>
   </g>
   <g id="legend_1">
    <g id="patch_7">
     <path d="M 355.72 78.25325 
L 407.72 78.25325 
Q 409.72 78.25325 409.72 76.25325 
L 409.72 48.472 
Q 409.72 46.472 407.72 46.472 
L 355.72 46.472 
Q 353.72 46.472 353.72 48.472 
L 353.72 76.25325 
Q 353.72 78.25325 355.72 78.25325 
z
" style="fill: #ffffff; opacity: 0.8; stroke: #cccccc; stroke-linejoin: miter"/>
    </g>
    <g id="line2d_16">
     <path d="M 357.72 54.462625 
L 367.72 54.462625 
L 377.72 54.462625 
" style="fill: none; stroke: #1f77b4; stroke-width: 1.5; stroke-linecap: square"/>
    </g>
    <g id="text_17">
     <!-- 那覇 -->
     <g transform="translate(385.72 57.962625) scale(0.1 -0.1)">
      <defs>
       <path id="IPAexGothic-90a3" d="M 1784 1606 
Q 1538 309 756 -531 
L 403 -206 
Q 1113 497 1344 1606 
L 434 1606 
L 434 1991 
L 1413 1991 
Q 1472 2422 1491 3059 
L 531 3059 
L 531 3444 
L 1497 3444 
Q 1500 3491 1503 3650 
Q 1506 3738 1509 3775 
Q 1516 3988 1516 4506 
L 619 4506 
L 619 4891 
L 3256 4891 
L 3256 3669 
Q 3256 847 3122 116 
Q 3038 -331 2469 -331 
Q 2122 -331 1797 -275 
L 1753 178 
Q 2138 84 2400 84 
Q 2656 84 2694 269 
Q 2719 369 2778 1606 
L 1784 1606 
z
M 1844 1991 
L 2791 1991 
L 2816 3059 
L 1919 3059 
Q 1909 2450 1844 1991 
z
M 1931 3444 
L 2822 3444 
L 2822 3641 
L 2822 4506 
L 1944 4506 
Q 1944 4019 1931 3444 
z
M 5153 2944 
Q 5953 2088 5953 1225 
Q 5953 456 5275 456 
Q 4963 456 4569 525 
L 4513 1013 
Q 4819 925 5166 925 
Q 5466 925 5466 1284 
Q 5466 2109 4659 2894 
Q 5103 3741 5294 4475 
L 4275 4475 
L 4275 -447 
L 3834 -447 
L 3834 4891 
L 5569 4891 
L 5856 4653 
Q 5528 3678 5153 2944 
z
" transform="scale(0.015625)"/>
       <path id="IPAexGothic-8987" d="M 2259 4441 
L 2259 4772 
L 447 4772 
L 447 5125 
L 5944 5125 
L 5944 4772 
L 4100 4772 
L 4100 4441 
L 5578 4441 
L 5578 3425 
L 813 3425 
L 813 4441 
L 2259 4441 
z
M 2675 4441 
L 3684 4441 
L 3684 4772 
L 2675 4772 
L 2675 4441 
z
M 2259 4116 
L 1253 4116 
L 1253 3750 
L 2259 3750 
L 2259 4116 
z
M 2675 4116 
L 2675 3750 
L 3684 3750 
L 3684 4116 
L 2675 4116 
z
M 4100 4116 
L 4100 3750 
L 5138 3750 
L 5138 4116 
L 4100 4116 
z
M 2109 2075 
L 2109 1813 
L 3256 1813 
L 3256 891 
L 2109 891 
L 2109 609 
L 3428 609 
L 3428 269 
L 2109 269 
L 2109 -469 
L 1694 -469 
L 1694 269 
L 319 269 
L 319 609 
L 1694 609 
L 1694 891 
L 588 891 
L 588 1813 
L 1694 1813 
L 1694 2075 
L 1028 2075 
L 1028 2644 
L 409 2644 
L 409 2969 
L 1028 2969 
L 1028 3288 
L 1431 3288 
L 1431 2969 
L 2353 2969 
L 2353 3288 
L 2756 3288 
L 2756 2969 
L 3409 2969 
L 3409 2644 
L 2756 2644 
L 2756 2075 
L 2109 2075 
z
M 1700 1531 
L 991 1531 
L 991 1172 
L 1700 1172 
L 1700 1531 
z
M 2103 1531 
L 2103 1172 
L 2847 1172 
L 2847 1531 
L 2103 1531 
z
M 2353 2644 
L 1431 2644 
L 1431 2369 
L 2353 2369 
L 2353 2644 
z
M 5778 3138 
L 5778 50 
Q 5778 -397 5306 -397 
Q 4928 -397 4666 -372 
L 4581 78 
Q 4878 31 5156 31 
Q 5363 31 5363 231 
L 5363 884 
L 4031 884 
Q 3984 119 3506 -525 
L 3153 -197 
Q 3628 353 3628 1306 
L 3628 3138 
L 5778 3138 
z
M 5363 2766 
L 4044 2766 
L 4044 2188 
L 5363 2188 
L 5363 2766 
z
M 5363 1834 
L 4044 1834 
L 4044 1238 
L 5363 1238 
L 5363 1834 
z
" transform="scale(0.015625)"/>
      </defs>
      <use xlink:href="#IPAexGothic-90a3"/>
      <use xlink:href="#IPAexGothic-8987" x="100"/>
     </g>
    </g>
    <g id="line2d_17">
     <path d="M 357.72 68.85325 
L 367.72 68.85325 
L 377.72 68.85325 
" style="fill: none; stroke: #ff7f0e; stroke-width: 1.5; stroke-linecap: square"/>
    </g>
    <g id="text_18">
     <!-- 名護 -->
     <g transform="translate(385.72 72.35325) scale(0.1 -0.1)">
      <defs>
       <path id="IPAexGothic-540d" d="M 2669 2094 
L 5563 2094 
L 5563 -434 
L 5088 -434 
L 5088 -122 
L 2459 -122 
L 2459 -447 
L 1984 -447 
L 1984 1716 
Q 1294 1366 716 1147 
L 397 1531 
Q 1775 1950 2844 2700 
Q 2400 3181 1978 3500 
Q 1509 3091 934 2784 
L 609 3122 
Q 2097 3881 2869 5297 
L 3322 5184 
Q 3263 5081 3028 4709 
L 4984 4709 
L 5253 4478 
Q 4072 2894 2669 2094 
z
M 2459 1697 
L 2459 269 
L 5088 269 
L 5088 1697 
L 2459 1697 
z
M 3213 2981 
Q 4069 3694 4531 4319 
L 2747 4319 
Q 2563 4088 2278 3781 
Q 2847 3366 3213 2981 
z
" transform="scale(0.015625)"/>
       <path id="IPAexGothic-8b77" d="M 4441 3444 
L 4441 3138 
L 5625 3138 
L 5625 2850 
L 4441 2850 
L 4441 2541 
L 5625 2541 
L 5625 2247 
L 4441 2247 
L 4441 1931 
L 5956 1931 
L 5956 1625 
L 2688 1625 
L 2688 2900 
Q 2500 2659 2347 2491 
L 2113 2813 
Q 2719 3456 3000 4172 
L 3225 4109 
L 3225 4428 
L 2297 4428 
L 2297 4788 
L 3225 4788 
L 3225 5294 
L 3647 5294 
L 3647 4788 
L 4569 4788 
L 4569 5294 
L 4984 5294 
L 4984 4788 
L 5978 4788 
L 5978 4428 
L 4984 4428 
L 4984 4044 
L 4672 4044 
Q 4556 3841 4500 3744 
L 5881 3744 
L 5881 3444 
L 4441 3444 
z
M 4056 3444 
L 3078 3444 
L 3078 3138 
L 4056 3138 
L 4056 3444 
z
M 4056 2850 
L 3078 2850 
L 3078 2541 
L 4056 2541 
L 4056 2850 
z
M 4056 2247 
L 3078 2247 
L 3078 1931 
L 4056 1931 
L 4056 2247 
z
M 3238 3744 
L 4097 3744 
L 4122 3788 
Q 4209 3969 4281 4178 
L 4569 4097 
L 4569 4428 
L 3647 4428 
L 3647 4044 
L 3384 4044 
Q 3378 4025 3353 3975 
Q 3322 3906 3309 3878 
L 3238 3744 
z
M 2181 1684 
L 2181 -128 
L 894 -128 
L 894 -447 
L 484 -447 
L 484 1684 
L 2181 1684 
z
M 894 1313 
L 894 244 
L 1772 244 
L 1772 1313 
L 894 1313 
z
M 4722 341 
Q 5328 113 6131 -38 
L 5850 -428 
Q 4950 -197 4325 116 
Q 3494 -306 2488 -519 
L 2259 -153 
Q 3184 -13 3934 322 
Q 3394 628 3006 1025 
L 2506 1025 
L 2506 1366 
L 5528 1366 
L 5728 1178 
Q 5275 688 4722 341 
z
M 4319 513 
Q 4722 744 5041 1025 
L 3519 1025 
Q 3778 784 4319 513 
z
M 569 5044 
L 2097 5044 
L 2097 4659 
L 569 4659 
L 569 5044 
z
M 313 4206 
L 2359 4206 
L 2359 3816 
L 313 3816 
L 313 4206 
z
M 569 3359 
L 2097 3359 
L 2097 2975 
L 569 2975 
L 569 3359 
z
M 569 2522 
L 2097 2522 
L 2097 2138 
L 569 2138 
L 569 2522 
z
" transform="scale(0.015625)"/>
      </defs>
      <use xlink:href="#IPAexGothic-540d"/>
      <use xlink:href="#IPAexGothic-8b77" x="100"/>
     </g>
    </g>
   </g>
  </g>
 </g>
 <defs>
  <clipPath id="pb63fcbb4ed">
   <rect x="57.6" y="41.472" width="357.12" height="266.112"/>
  </clipPath>
 </defs>
</svg>
